<?xml version="1.0" encoding="utf-8"?>
<!-- Generator: Adobe Illustrator 22.1.0, SVG Export Plug-In . SVG Version: 6.00 Build 0)  -->
<svg version="1.1" xmlns="http://www.w3.org/2000/svg" xmlns:xlink="http://www.w3.org/1999/xlink" x="0px" y="0px"
	 viewBox="0 0 32 32" style="enable-background:new 0 0 32 32;" xml:space="preserve">
<style type="text/css">
	.st0{fill:url(#SVGID_1_);}
	.st1{fill:url(#SVGID_2_);}
	.st2{fill:url(#SVGID_3_);}
	.st3{fill:url(#SVGID_4_);}
	.st4{fill:url(#SVGID_5_);}
	.st5{fill:url(#SVGID_6_);}
	.st6{fill:url(#SVGID_7_);}
	.st7{fill:url(#SVGID_8_);}
	.st8{fill:#DFA27A;}
	.st9{fill:url(#SVGID_9_);}
	.st10{fill:url(#SVGID_10_);}
	.st11{fill:url(#SVGID_11_);}
	.st12{fill:url(#SVGID_12_);}
	.st13{fill:url(#SVGID_13_);}
	.st14{fill:url(#SVGID_14_);}
	.st15{fill:url(#SVGID_15_);}
	.st16{fill:url(#SVGID_16_);}
	.st17{fill:url(#SVGID_17_);}
	.st18{fill:url(#SVGID_18_);}
	.st19{fill:url(#SVGID_19_);fill-opacity:0.5;}
	.st20{fill:url(#SVGID_20_);}
	.st21{fill:url(#SVGID_21_);}
	.st22{fill:url(#SVGID_22_);}
	.st23{fill:url(#SVGID_23_);}
	.st24{fill:url(#SVGID_24_);}
	.st25{fill:url(#SVGID_25_);}
	.st26{fill:url(#SVGID_26_);}
	.st27{fill:url(#SVGID_27_);}
	.st28{fill:url(#SVGID_28_);}
	.st29{fill:url(#SVGID_29_);}
	.st30{fill:url(#SVGID_30_);}
	.st31{fill:url(#SVGID_31_);}
	.st32{fill:url(#SVGID_32_);}
	.st33{fill:url(#SVGID_33_);}
	.st34{fill:url(#SVGID_34_);}
	.st35{fill:url(#SVGID_35_);}
	.st36{fill:url(#SVGID_36_);}
	.st37{fill:url(#SVGID_37_);}
	.st38{fill:url(#SVGID_38_);}
	.st39{fill:url(#SVGID_39_);}
	.st40{fill:url(#SVGID_40_);}
	.st41{fill:url(#SVGID_41_);}
	.st42{fill:url(#SVGID_42_);}
	.st43{fill:url(#SVGID_43_);}
	.st44{fill:url(#SVGID_44_);}
	.st45{fill:url(#SVGID_45_);}
	.st46{fill:url(#SVGID_46_);}
	.st47{fill:url(#SVGID_47_);}
	.st48{fill:#FFCD9F;}
	.st49{fill:url(#SVGID_48_);}
	.st50{fill:url(#SVGID_49_);}
	.st51{fill:url(#SVGID_50_);}
	.st52{fill:url(#SVGID_51_);}
	.st53{fill:url(#SVGID_52_);}
	.st54{fill:url(#SVGID_53_);}
	.st55{fill:url(#SVGID_54_);}
	.st56{fill:url(#SVGID_55_);}
	.st57{fill:url(#SVGID_56_);}
	.st58{fill:url(#SVGID_57_);}
	.st59{fill:url(#SVGID_58_);}
	.st60{fill:url(#SVGID_59_);}
	.st61{fill:url(#SVGID_60_);}
	.st62{fill:url(#SVGID_61_);}
	.st63{fill:url(#SVGID_62_);}
	.st64{fill:url(#SVGID_63_);}
	.st65{fill:url(#SVGID_64_);}
	.st66{fill:url(#SVGID_65_);}
	.st67{fill:none;stroke:url(#SVGID_66_);stroke-width:0.2;stroke-linecap:round;}
	.st68{fill:none;stroke:url(#SVGID_67_);stroke-width:0.6;stroke-linecap:round;}
	.st69{fill:url(#SVGID_68_);}
	.st70{fill:url(#SVGID_69_);}
	.st71{fill:url(#SVGID_70_);}
	.st72{fill:none;stroke:url(#SVGID_71_);stroke-width:0.25;stroke-linecap:round;}
	.st73{fill:none;stroke:url(#SVGID_72_);stroke-width:0.2;stroke-linecap:round;}
	.st74{fill:none;stroke:url(#SVGID_73_);stroke-width:0.2;stroke-linecap:round;}
	.st75{fill:none;stroke:url(#SVGID_74_);stroke-width:0.5;stroke-linecap:round;}
	.st76{fill:none;stroke:url(#SVGID_75_);stroke-width:0.5;stroke-linecap:round;}
	.st77{fill:url(#SVGID_76_);}
	.st78{fill:url(#SVGID_77_);}
	.st79{fill:url(#SVGID_78_);}
	.st80{fill:url(#SVGID_79_);}
	.st81{fill:none;stroke:url(#SVGID_80_);stroke-width:0.5;stroke-linecap:round;}
	.st82{fill:none;stroke:url(#SVGID_81_);stroke-width:0.5;stroke-linecap:round;}
	.st83{fill:none;stroke:url(#SVGID_82_);stroke-width:0.5;stroke-linecap:round;}
	.st84{fill:none;stroke:url(#SVGID_83_);stroke-width:0.25;stroke-linecap:round;}
	.st85{fill:none;stroke:url(#SVGID_84_);stroke-width:0.25;stroke-linecap:round;}
	.st86{fill:none;stroke:url(#SVGID_85_);stroke-width:0.25;stroke-linecap:round;}
	.st87{fill:none;stroke:url(#SVGID_86_);stroke-width:0.25;stroke-linecap:round;}
	.st88{fill:url(#SVGID_87_);}
	.st89{fill:none;stroke:url(#SVGID_88_);stroke-width:0.5;}
	.st90{fill:url(#SVGID_89_);}
	.st91{fill:url(#SVGID_90_);}
	.st92{fill:url(#SVGID_91_);}
	.st93{fill:url(#SVGID_92_);}
	.st94{fill:url(#SVGID_93_);}
	.st95{fill:url(#SVGID_94_);}
	.st96{fill:url(#SVGID_95_);fill-opacity:0.2;}
	.st97{fill:url(#SVGID_96_);}
	.st98{fill:url(#SVGID_97_);}
	.st99{fill:url(#SVGID_98_);}
	.st100{fill:url(#SVGID_99_);}
	.st101{fill:url(#SVGID_100_);}
	.st102{fill:url(#SVGID_101_);}
	.st103{fill:url(#SVGID_102_);}
	.st104{fill:url(#SVGID_103_);}
	.st105{fill:#D9677A;}
	.st106{fill:url(#SVGID_104_);}
	.st107{fill:url(#SVGID_105_);}
	.st108{fill:url(#SVGID_106_);}
	.st109{fill:url(#SVGID_107_);}
	.st110{fill:url(#SVGID_108_);}
	.st111{fill:url(#SVGID_109_);}
	.st112{opacity:0.3;fill:#B79198;enable-background:new    ;}
	.st113{opacity:0.3;fill:#C7848D;enable-background:new    ;}
	.st114{opacity:0.3;fill:#DC949D;enable-background:new    ;}
	.st115{opacity:0.3;fill:#E38390;enable-background:new    ;}
	.st116{opacity:0.3;fill:#ED9EB4;enable-background:new    ;}
	.st117{opacity:0.3;fill:#DB9EAF;enable-background:new    ;}
	.st118{opacity:0.3;fill:#D7838B;enable-background:new    ;}
	.st119{opacity:0.3;fill:url(#SVGID_110_);enable-background:new    ;}
	.st120{opacity:0.3;fill:url(#SVGID_111_);enable-background:new    ;}
	.st121{fill:none;stroke:url(#SVGID_112_);stroke-width:0.75;stroke-linecap:round;}
	.st122{fill:url(#SVGID_113_);}
	.st123{fill:url(#SVGID_114_);}
	.st124{fill:url(#SVGID_115_);}
	.st125{fill:none;stroke:url(#SVGID_116_);stroke-width:0.75;stroke-linecap:round;}
	.st126{fill:none;stroke:url(#SVGID_117_);stroke-width:0.75;stroke-linecap:round;}
	.st127{fill:none;stroke:url(#SVGID_118_);stroke-width:0.75;stroke-linecap:round;}
	.st128{fill:url(#SVGID_119_);}
	.st129{fill:url(#SVGID_120_);}
	.st130{fill:url(#SVGID_121_);}
	.st131{fill:url(#SVGID_122_);}
	.st132{fill:url(#SVGID_123_);}
	.st133{fill:url(#SVGID_124_);}
	.st134{fill:url(#SVGID_125_);}
	.st135{fill:url(#SVGID_126_);}
	.st136{fill:url(#SVGID_127_);}
	.st137{fill:url(#SVGID_128_);}
</style>
<g id="图层_1">
	
		<radialGradient id="SVGID_1_" cx="-631.1209" cy="350.4734" r="1" gradientTransform="matrix(-0.793 -3.7787 -2.1951 0.4607 285.632 -2516.7947)" gradientUnits="userSpaceOnUse">
		<stop  offset="0" style="stop-color:#E29183"/>
		<stop  offset="1" style="stop-color:#C87154"/>
	</radialGradient>
	<path class="st0" d="M17,24.8h-3l0.9,4.4c0,0.1,0.2,0.3,0.3,0.3h2.4c0.2,0,0.4-0.2,0.3-0.4L17,24.8z"/>
	
		<linearGradient id="SVGID_2_" gradientUnits="userSpaceOnUse" x1="17.1723" y1="8.4359" x2="15.7471" y2="6.6234" gradientTransform="matrix(1 0 0 -1 0 34)">
		<stop  offset="0" style="stop-color:#C86B4D"/>
		<stop  offset="1" style="stop-color:#C86B4D;stop-opacity:0"/>
	</linearGradient>
	<path class="st1" d="M17,24.8h-3l0.9,4.4c0,0.1,0.2,0.3,0.3,0.3h2.4c0.2,0,0.4-0.2,0.3-0.4L17,24.8z"/>
	
		<linearGradient id="SVGID_3_" gradientUnits="userSpaceOnUse" x1="17.9142" y1="7.1375" x2="17.0514" y2="7.013" gradientTransform="matrix(1 0 0 -1 0 34)">
		<stop  offset="0" style="stop-color:#C76648"/>
		<stop  offset="1" style="stop-color:#C86B4D;stop-opacity:0"/>
	</linearGradient>
	<path class="st2" d="M17,24.8h-3l0.9,4.4c0,0.1,0.2,0.3,0.3,0.3h2.4c0.2,0,0.4-0.2,0.3-0.4L17,24.8z"/>
	
		<linearGradient id="SVGID_4_" gradientUnits="userSpaceOnUse" x1="15.8729" y1="4.3323" x2="15.8993" y2="4.8856" gradientTransform="matrix(1 0 0 -1 0 34)">
		<stop  offset="0" style="stop-color:#CC6C84"/>
		<stop  offset="1" style="stop-color:#CC6C84;stop-opacity:0"/>
	</linearGradient>
	<path class="st3" d="M17,24.8h-3l0.9,4.4c0,0.1,0.2,0.3,0.3,0.3h2.4c0.2,0,0.4-0.2,0.3-0.4L17,24.8z"/>
	
		<radialGradient id="SVGID_5_" cx="-564.653" cy="343.5467" r="1" gradientTransform="matrix(1.0625 -4.1125 -3.2848 -0.8487 1750.9325 -2001.0963)" gradientUnits="userSpaceOnUse">
		<stop  offset="0" style="stop-color:#E29183"/>
		<stop  offset="1" style="stop-color:#C87154"/>
	</radialGradient>
	<path class="st4" d="M21,24.8h3L23,29.2c0,0.1-0.2,0.3-0.3,0.3h-2.4c-0.2,0-0.4-0.2-0.3-0.4L21,24.8z"/>
	
		<linearGradient id="SVGID_6_" gradientUnits="userSpaceOnUse" x1="22.0242" y1="8.1758" x2="21.9609" y2="6.0977" gradientTransform="matrix(1 0 0 -1 0 34)">
		<stop  offset="0" style="stop-color:#C76648"/>
		<stop  offset="1" style="stop-color:#C86B4D;stop-opacity:0"/>
	</linearGradient>
	<path class="st5" d="M21,24.8h3L23,29.2c0,0.1-0.2,0.3-0.3,0.3h-2.4c-0.2,0-0.4-0.2-0.3-0.4L21,24.8z"/>
	
		<linearGradient id="SVGID_7_" gradientUnits="userSpaceOnUse" x1="20.3634" y1="7.329" x2="21.004" y2="7.1531" gradientTransform="matrix(1 0 0 -1 0 34)">
		<stop  offset="0" style="stop-color:#C76648"/>
		<stop  offset="1" style="stop-color:#C86B4D;stop-opacity:0"/>
	</linearGradient>
	<path class="st6" d="M21,24.8h3L23,29.2c0,0.1-0.2,0.3-0.3,0.3h-2.4c-0.2,0-0.4-0.2-0.3-0.4L21,24.8z"/>
	
		<linearGradient id="SVGID_8_" gradientUnits="userSpaceOnUse" x1="21.9886" y1="4.271" x2="21.9886" y2="4.9038" gradientTransform="matrix(1 0 0 -1 0 34)">
		<stop  offset="0" style="stop-color:#CC6C84"/>
		<stop  offset="1" style="stop-color:#CC6C84;stop-opacity:0"/>
	</linearGradient>
	<path class="st7" d="M21,24.8h3L23,29.2c0,0.1-0.2,0.3-0.3,0.3h-2.4c-0.2,0-0.4-0.2-0.3-0.4L21,24.8z"/>
	<path class="st8" d="M20,9.4c-1.6,0-3.1,0.4-4.3,1.2l-8,4.5C6.6,15.7,6,16.8,6,18v1c0,0.6-0.3,1.1-0.8,1.3l-2.7,1.3
		C2.2,21.7,2,22.1,2,22.4c0,1.5,1.1,4,4.9,4h2.9L8.6,29c-0.1,0.2,0.1,0.5,0.3,0.5h2.6c0.1,0,0.3-0.1,0.3-0.2l1.3-2.8h11.7
		c0.1,0,0.3,0.1,0.3,0.3v2.4c0,0.2,0.1,0.3,0.3,0.3h2.3c0.2,0,0.3-0.2,0.3-0.3v-2.7v-1.8l0.6-6.7C28.6,13.3,24.8,9.4,20,9.4z"/>
	
		<linearGradient id="SVGID_9_" gradientUnits="userSpaceOnUse" x1="15.3117" y1="3.4837" x2="15.3117" y2="5.4976" gradientTransform="matrix(1 0 0 -1 0 34)">
		<stop  offset="0" style="stop-color:#CC6C84"/>
		<stop  offset="1" style="stop-color:#CC6C84;stop-opacity:0"/>
	</linearGradient>
	<path class="st9" d="M20,9.4c-1.6,0-3.1,0.4-4.3,1.2l-8,4.5C6.6,15.7,6,16.8,6,18v1c0,0.6-0.3,1.1-0.8,1.3l-2.7,1.3
		C2.2,21.7,2,22.1,2,22.4c0,1.5,1.1,4,4.9,4h2.9L8.6,29c-0.1,0.2,0.1,0.5,0.3,0.5h2.6c0.1,0,0.3-0.1,0.3-0.2l1.3-2.8h11.7
		c0.1,0,0.3,0.1,0.3,0.3v2.4c0,0.2,0.1,0.3,0.3,0.3h2.3c0.2,0,0.3-0.2,0.3-0.3v-2.7v-1.8l0.6-6.7C28.6,13.3,24.8,9.4,20,9.4z"/>
	
		<radialGradient id="SVGID_10_" cx="420.5797" cy="332.7505" r="1" gradientTransform="matrix(0.5625 3.124944e-02 0.1371 -2.4682 -257.1912 836.5272)" gradientUnits="userSpaceOnUse">
		<stop  offset="0" style="stop-color:#DB7D59"/>
		<stop  offset="1" style="stop-color:#DB7D59;stop-opacity:0"/>
	</radialGradient>
	<path class="st10" d="M20,9.4c-1.6,0-3.1,0.4-4.3,1.2l-8,4.5C6.6,15.7,6,16.8,6,18v1c0,0.6-0.3,1.1-0.8,1.3l-2.7,1.3
		C2.2,21.7,2,22.1,2,22.4c0,1.5,1.1,4,4.9,4h2.9L8.6,29c-0.1,0.2,0.1,0.5,0.3,0.5h2.6c0.1,0,0.3-0.1,0.3-0.2l1.3-2.8h11.7
		c0.1,0,0.3,0.1,0.3,0.3v2.4c0,0.2,0.1,0.3,0.3,0.3h2.3c0.2,0,0.3-0.2,0.3-0.3v-2.7v-1.8l0.6-6.7C28.6,13.3,24.8,9.4,20,9.4z"/>
	
		<radialGradient id="SVGID_11_" cx="427.0999" cy="431.1743" r="1" gradientTransform="matrix(0.6406 0.2656 1.1655 -2.811 -767.3178 1127.005)" gradientUnits="userSpaceOnUse">
		<stop  offset="0" style="stop-color:#DB7D59"/>
		<stop  offset="1" style="stop-color:#DB7D59;stop-opacity:0"/>
	</radialGradient>
	<path class="st11" d="M20,9.4c-1.6,0-3.1,0.4-4.3,1.2l-8,4.5C6.6,15.7,6,16.8,6,18v1c0,0.6-0.3,1.1-0.8,1.3l-2.7,1.3
		C2.2,21.7,2,22.1,2,22.4c0,1.5,1.1,4,4.9,4h2.9L8.6,29c-0.1,0.2,0.1,0.5,0.3,0.5h2.6c0.1,0,0.3-0.1,0.3-0.2l1.3-2.8h11.7
		c0.1,0,0.3,0.1,0.3,0.3v2.4c0,0.2,0.1,0.3,0.3,0.3h2.3c0.2,0,0.3-0.2,0.3-0.3v-2.7v-1.8l0.6-6.7C28.6,13.3,24.8,9.4,20,9.4z"/>
	
		<radialGradient id="SVGID_12_" cx="-1146.8291" cy="556.1691" r="1" gradientTransform="matrix(-0.875 -0.4219 -2.4981 5.1812 397.9955 -3336.116)" gradientUnits="userSpaceOnUse">
		<stop  offset="0" style="stop-color:#DB7D59"/>
		<stop  offset="1" style="stop-color:#DB7D59;stop-opacity:0"/>
	</radialGradient>
	<path class="st12" d="M20,9.4c-1.6,0-3.1,0.4-4.3,1.2l-8,4.5C6.6,15.7,6,16.8,6,18v1c0,0.6-0.3,1.1-0.8,1.3l-2.7,1.3
		C2.2,21.7,2,22.1,2,22.4c0,1.5,1.1,4,4.9,4h2.9L8.6,29c-0.1,0.2,0.1,0.5,0.3,0.5h2.6c0.1,0,0.3-0.1,0.3-0.2l1.3-2.8h11.7
		c0.1,0,0.3,0.1,0.3,0.3v2.4c0,0.2,0.1,0.3,0.3,0.3h2.3c0.2,0,0.3-0.2,0.3-0.3v-2.7v-1.8l0.6-6.7C28.6,13.3,24.8,9.4,20,9.4z"/>
	
		<radialGradient id="SVGID_13_" cx="-803.6841" cy="528.663" r="1" gradientTransform="matrix(-1.7031 -1.2344 -5.4162 7.4732 1523.0013 -4912.5815)" gradientUnits="userSpaceOnUse">
		<stop  offset="0" style="stop-color:#DB7D59"/>
		<stop  offset="0.9633" style="stop-color:#DB7D59;stop-opacity:0"/>
	</radialGradient>
	<path class="st13" d="M20,9.4c-1.6,0-3.1,0.4-4.3,1.2l-8,4.5C6.6,15.7,6,16.8,6,18v1c0,0.6-0.3,1.1-0.8,1.3l-2.7,1.3
		C2.2,21.7,2,22.1,2,22.4c0,1.5,1.1,4,4.9,4h2.9L8.6,29c-0.1,0.2,0.1,0.5,0.3,0.5h2.6c0.1,0,0.3-0.1,0.3-0.2l1.3-2.8h11.7
		c0.1,0,0.3,0.1,0.3,0.3v2.4c0,0.2,0.1,0.3,0.3,0.3h2.3c0.2,0,0.3-0.2,0.3-0.3v-2.7v-1.8l0.6-6.7C28.6,13.3,24.8,9.4,20,9.4z"/>
	
		<linearGradient id="SVGID_14_" gradientUnits="userSpaceOnUse" x1="15.3117" y1="2.3413" x2="15.3117" y2="5.1538" gradientTransform="matrix(1 0 0 -1 0 34)">
		<stop  offset="0" style="stop-color:#DB7D59"/>
		<stop  offset="0.9633" style="stop-color:#DB7D59;stop-opacity:0"/>
	</linearGradient>
	<path class="st14" d="M20,9.4c-1.6,0-3.1,0.4-4.3,1.2l-8,4.5C6.6,15.7,6,16.8,6,18v1c0,0.6-0.3,1.1-0.8,1.3l-2.7,1.3
		C2.2,21.7,2,22.1,2,22.4c0,1.5,1.1,4,4.9,4h2.9L8.6,29c-0.1,0.2,0.1,0.5,0.3,0.5h2.6c0.1,0,0.3-0.1,0.3-0.2l1.3-2.8h11.7
		c0.1,0,0.3,0.1,0.3,0.3v2.4c0,0.2,0.1,0.3,0.3,0.3h2.3c0.2,0,0.3-0.2,0.3-0.3v-2.7v-1.8l0.6-6.7C28.6,13.3,24.8,9.4,20,9.4z"/>
	
		<linearGradient id="SVGID_15_" gradientUnits="userSpaceOnUse" x1="28.3242" y1="14.5351" x2="27.6523" y2="14.5351" gradientTransform="matrix(1 0 0 -1 0 34)">
		<stop  offset="0" style="stop-color:#DB7D59"/>
		<stop  offset="0.9633" style="stop-color:#DB7D59;stop-opacity:0"/>
	</linearGradient>
	<path class="st15" d="M20,9.4c-1.6,0-3.1,0.4-4.3,1.2l-8,4.5C6.6,15.7,6,16.8,6,18v1c0,0.6-0.3,1.1-0.8,1.3l-2.7,1.3
		C2.2,21.7,2,22.1,2,22.4c0,1.5,1.1,4,4.9,4h2.9L8.6,29c-0.1,0.2,0.1,0.5,0.3,0.5h2.6c0.1,0,0.3-0.1,0.3-0.2l1.3-2.8h11.7
		c0.1,0,0.3,0.1,0.3,0.3v2.4c0,0.2,0.1,0.3,0.3,0.3h2.3c0.2,0,0.3-0.2,0.3-0.3v-2.7v-1.8l0.6-6.7C28.6,13.3,24.8,9.4,20,9.4z"/>
	
		<radialGradient id="SVGID_16_" cx="-339.802" cy="509.6647" r="1" gradientTransform="matrix(3.6562 3.0313 5.5303 -6.6706 -1571.8678 4449.4614)" gradientUnits="userSpaceOnUse">
		<stop  offset="0" style="stop-color:#ECAF77"/>
		<stop  offset="1" style="stop-color:#ECAF77;stop-opacity:0"/>
	</radialGradient>
	<path class="st16" d="M20,9.4c-1.6,0-3.1,0.4-4.3,1.2l-8,4.5C6.6,15.7,6,16.8,6,18v1c0,0.6-0.3,1.1-0.8,1.3l-2.7,1.3
		C2.2,21.7,2,22.1,2,22.4c0,1.5,1.1,4,4.9,4h2.9L8.6,29c-0.1,0.2,0.1,0.5,0.3,0.5h2.6c0.1,0,0.3-0.1,0.3-0.2l1.3-2.8h11.7
		c0.1,0,0.3,0.1,0.3,0.3v2.4c0,0.2,0.1,0.3,0.3,0.3h2.3c0.2,0,0.3-0.2,0.3-0.3v-2.7v-1.8l0.6-6.7C28.6,13.3,24.8,9.4,20,9.4z"/>
	
		<radialGradient id="SVGID_17_" cx="-55.4992" cy="510.088" r="1" gradientTransform="matrix(1.1719 1.0844 2.601 -2.8109 -1256.672 1513.4419)" gradientUnits="userSpaceOnUse">
		<stop  offset="0" style="stop-color:#CF8255"/>
		<stop  offset="1" style="stop-color:#CF8255;stop-opacity:0"/>
	</radialGradient>
	<path class="st17" d="M20,9.4c-1.6,0-3.1,0.4-4.3,1.2l-8,4.5C6.6,15.7,6,16.8,6,18v1c0,0.6-0.3,1.1-0.8,1.3l-2.7,1.3
		C2.2,21.7,2,22.1,2,22.4c0,1.5,1.1,4,4.9,4h2.9L8.6,29c-0.1,0.2,0.1,0.5,0.3,0.5h2.6c0.1,0,0.3-0.1,0.3-0.2l1.3-2.8h11.7
		c0.1,0,0.3,0.1,0.3,0.3v2.4c0,0.2,0.1,0.3,0.3,0.3h2.3c0.2,0,0.3-0.2,0.3-0.3v-2.7v-1.8l0.6-6.7C28.6,13.3,24.8,9.4,20,9.4z"/>
	
		<radialGradient id="SVGID_18_" cx="-629.6334" cy="697.6207" r="1" gradientTransform="matrix(-2.55 0.5 0.6039 3.08 -2011.5775 -1815.8705)" gradientUnits="userSpaceOnUse">
		<stop  offset="0" style="stop-color:#E9B290"/>
		<stop  offset="1" style="stop-color:#E9B290;stop-opacity:0"/>
	</radialGradient>
	<path class="st18" d="M20,9.4c-1.6,0-3.1,0.4-4.3,1.2l-8,4.5C6.6,15.7,6,16.8,6,18v1c0,0.6-0.3,1.1-0.8,1.3l-2.7,1.3
		C2.2,21.7,2,22.1,2,22.4c0,1.5,1.1,4,4.9,4h2.9L8.6,29c-0.1,0.2,0.1,0.5,0.3,0.5h2.6c0.1,0,0.3-0.1,0.3-0.2l1.3-2.8h11.7
		c0.1,0,0.3,0.1,0.3,0.3v2.4c0,0.2,0.1,0.3,0.3,0.3h2.3c0.2,0,0.3-0.2,0.3-0.3v-2.7v-1.8l0.6-6.7C28.6,13.3,24.8,9.4,20,9.4z"/>
	
		<radialGradient id="SVGID_19_" cx="-18.287" cy="370.9236" r="1" gradientTransform="matrix(1.25 0.4375 0.6701 -1.9147 -215.2137 734.9506)" gradientUnits="userSpaceOnUse">
		<stop  offset="0" style="stop-color:#AB5925"/>
		<stop  offset="0.918" style="stop-color:#AB5925;stop-opacity:0"/>
	</radialGradient>
	<path class="st19" d="M20,9.4c-1.6,0-3.1,0.4-4.3,1.2l-8,4.5C6.6,15.7,6,16.8,6,18v1c0,0.6-0.3,1.1-0.8,1.3l-2.7,1.3
		C2.2,21.7,2,22.1,2,22.4c0,1.5,1.1,4,4.9,4h2.9L8.6,29c-0.1,0.2,0.1,0.5,0.3,0.5h2.6c0.1,0,0.3-0.1,0.3-0.2l1.3-2.8h11.7
		c0.1,0,0.3,0.1,0.3,0.3v2.4c0,0.2,0.1,0.3,0.3,0.3h2.3c0.2,0,0.3-0.2,0.3-0.3v-2.7v-1.8l0.6-6.7C28.6,13.3,24.8,9.4,20,9.4z"/>
	
		<linearGradient id="SVGID_20_" gradientUnits="userSpaceOnUse" x1="6.3848" y1="7.1851" x2="6.3848" y2="8.4976" gradientTransform="matrix(1 0 0 -1 0 34)">
		<stop  offset="0" style="stop-color:#CC6C84"/>
		<stop  offset="1" style="stop-color:#CC6C84;stop-opacity:0"/>
	</linearGradient>
	<path class="st20" d="M10.8,24.2H6.4c-1.3,0-2.6-0.5-3.5-1.5l-0.8-0.8C2,22.1,2,22.3,2,22.4c0,1.5,1.1,4,4.9,4h2.8L10.8,24.2z"/>
	
		<radialGradient id="SVGID_21_" cx="-445.3623" cy="283.7486" r="1" gradientTransform="matrix(6.25 -2.6563 -1.0622 -2.4993 3090.9944 -445.4013)" gradientUnits="userSpaceOnUse">
		<stop  offset="0" style="stop-color:#CC6C84"/>
		<stop  offset="1" style="stop-color:#CC6C84;stop-opacity:0"/>
	</radialGradient>
	<path class="st21" d="M10.8,24.2H6.4c-1.3,0-2.6-0.5-3.5-1.5l-0.8-0.8C2,22.1,2,22.3,2,22.4c0,1.5,1.1,4,4.9,4h2.8L10.8,24.2z"/>
	
		<linearGradient id="SVGID_22_" gradientUnits="userSpaceOnUse" x1="4.4329" y1="7.0002" x2="5.4641" y2="8.9377" gradientTransform="matrix(1 0 0 -1 0 34)">
		<stop  offset="0" style="stop-color:#CC6C84"/>
		<stop  offset="0.8388" style="stop-color:#CC6C84;stop-opacity:0"/>
	</linearGradient>
	<path class="st22" d="M10.8,24.2H6.4c-1.3,0-2.6-0.5-3.5-1.5l-0.8-0.8C2,22.1,2,22.3,2,22.4c0,1.5,1.1,4,4.9,4h2.8L10.8,24.2z"/>
	
		<radialGradient id="SVGID_23_" cx="-1603.3007" cy="408.7263" r="1" gradientTransform="matrix(-0.3594 -0.4844 -0.7425 0.5509 -262.4792 -975.9121)" gradientUnits="userSpaceOnUse">
		<stop  offset="0" style="stop-color:#DFA27A"/>
		<stop  offset="1" style="stop-color:#DFA27A;stop-opacity:0"/>
	</radialGradient>
	<path class="st23" d="M10.8,24.2H6.4c-1.3,0-2.6-0.5-3.5-1.5l-0.8-0.8C2,22.1,2,22.3,2,22.4c0,1.5,1.1,4,4.9,4h2.8L10.8,24.2z"/>
	
		<linearGradient id="SVGID_24_" gradientUnits="userSpaceOnUse" x1="20.0924" y1="7.2618" x2="20.0924" y2="8.7163" gradientTransform="matrix(1 0 0 -1 0 34)">
		<stop  offset="0" style="stop-color:#CC6C84"/>
		<stop  offset="1" style="stop-color:#CC6C84;stop-opacity:0"/>
	</linearGradient>
	<path class="st24" d="M25,26.7l2.1-4.8h-12L13,26.5h11.7C24.9,26.5,25,26.6,25,26.7z"/>
	
		<radialGradient id="SVGID_25_" cx="-484.8305" cy="411.478" r="1" gradientTransform="matrix(6.8438 -7.2187 -4.696 -4.452 5267.981 -1639.1127)" gradientUnits="userSpaceOnUse">
		<stop  offset="0" style="stop-color:#CC6C84"/>
		<stop  offset="1" style="stop-color:#CC6C84;stop-opacity:0"/>
	</radialGradient>
	<path class="st25" d="M25,26.7l2.1-4.8h-12L13,26.5h11.7C24.9,26.5,25,26.6,25,26.7z"/>
	
		<linearGradient id="SVGID_26_" gradientUnits="userSpaceOnUse" x1="24.4501" y1="6.6315" x2="23.7626" y2="7.1315" gradientTransform="matrix(1 0 0 -1 0 34)">
		<stop  offset="0" style="stop-color:#DFA27A"/>
		<stop  offset="1" style="stop-color:#DFA27A;stop-opacity:0"/>
	</linearGradient>
	<path class="st26" d="M25,26.7l2.1-4.8h-12L13,26.5h11.7C24.9,26.5,25,26.6,25,26.7z"/>
	
		<linearGradient id="SVGID_27_" gradientUnits="userSpaceOnUse" x1="15.0349" y1="12.1344" x2="15.6443" y2="11.8532" gradientTransform="matrix(1 0 0 -1 0 34)">
		<stop  offset="0" style="stop-color:#DFA27A"/>
		<stop  offset="1" style="stop-color:#DFA27A;stop-opacity:0"/>
	</linearGradient>
	<path class="st27" d="M25,26.7l2.1-4.8h-12L13,26.5h11.7C24.9,26.5,25,26.6,25,26.7z"/>
	
		<radialGradient id="SVGID_28_" cx="-108.8689" cy="926.7234" r="1" gradientTransform="matrix(1.562448e-02 1.3062 1.1646 -1.392992e-02 -1074.7622 177.1368)" gradientUnits="userSpaceOnUse">
		<stop  offset="0" style="stop-color:#58484C"/>
		<stop  offset="1" style="stop-color:#482E44"/>
	</radialGradient>
	<path class="st28" d="M3,23.3c0.5,0,1-0.4,1-1c0-0.5-0.4-1-1-1s-1,0.4-1,1C2,22.9,2.4,23.3,3,23.3z"/>
	
		<radialGradient id="SVGID_29_" cx="-338.4698" cy="1648.5651" r="1" gradientTransform="matrix(-0.42 0.57 0.4805 0.354 -930.9832 -368.5664)" gradientUnits="userSpaceOnUse">
		<stop  offset="0" style="stop-color:#675B5C"/>
		<stop  offset="1" style="stop-color:#5C5051;stop-opacity:0"/>
	</radialGradient>
	<path class="st29" d="M3,23.3c0.5,0,1-0.4,1-1c0-0.5-0.4-1-1-1s-1,0.4-1,1C2,22.9,2.4,23.3,3,23.3z"/>
	
		<radialGradient id="SVGID_30_" cx="-323.0008" cy="85.7883" r="1" gradientTransform="matrix(1.5391 -0.625 -0.549 -1.352 556.2168 -67.5123)" gradientUnits="userSpaceOnUse">
		<stop  offset="0" style="stop-color:#D99974"/>
		<stop  offset="1" style="stop-color:#AF6F4E"/>
	</radialGradient>
	<path class="st30" d="M12.6,19c0.6,0,1.1-0.5,1.1-1.1s-0.5-1.1-1.1-1.1c-0.6,0-1.1,0.5-1.1,1.1S12,19,12.6,19z"/>
	
		<radialGradient id="SVGID_31_" cx="-131.9486" cy="706.1658" r="1" gradientTransform="matrix(0.5938 1.6562 1.4514 -0.5203 -934.4147 602.9649)" gradientUnits="userSpaceOnUse">
		<stop  offset="0" style="stop-color:#BF725C"/>
		<stop  offset="1" style="stop-color:#BF725C;stop-opacity:0"/>
	</radialGradient>
	<path class="st31" d="M12.6,19c0.6,0,1.1-0.5,1.1-1.1s-0.5-1.1-1.1-1.1c-0.6,0-1.1,0.5-1.1,1.1S12,19,12.6,19z"/>
	<g>
		
			<radialGradient id="SVGID_32_" cx="-478.501" cy="583.2495" r="1" gradientTransform="matrix(-6.7643 7.75 7.75 6.7643 -7732.146 -222.3446)" gradientUnits="userSpaceOnUse">
			<stop  offset="0.2014" style="stop-color:#BD7E76"/>
			<stop  offset="1" style="stop-color:#8C4B4D"/>
		</radialGradient>
		<path class="st32" d="M29.9,19.5c0.1-0.3,0.1-0.6-0.1-0.8l-0.4-0.5c-0.3-0.4-0.4-0.9-0.2-1.3l0.6-1.5c0.1-0.3,0-0.7-0.3-1l-1-0.8
			C28.2,13.4,28,13,28,12.6v-1.7c0-0.4-0.4-0.8-0.8-0.8h-1.9c-0.4,0-0.8-0.2-1-0.5l-1.1-1.4c-0.2-0.3-0.6-0.4-0.9-0.2l-1.7,0.8
			c-0.3,0.1-0.5,0.1-0.8,0.1l-1.8-0.4c-0.3-0.1-0.6,0-0.8,0.3L15.9,10c-0.3,0.3-0.6,0.4-1,0.4h-1.8c-0.3,0-0.6,0.2-0.7,0.4l-0.5,1
			c-0.2,0.5-0.7,0.7-1.2,0.7H9.9c-0.3,0-0.6,0.2-0.7,0.5L8.8,14c-0.2,0.4-0.7,0.8-1.2,0.8H6.8c-0.4,0-0.8,0.4-0.8,0.8V18
			c0,0,2.7,0,3.9,0c0.3,0,0.6-0.2,0.7-0.5c0.2-1,1.1-1.6,2.2-1.6c1.1,0.1,2,0.9,2,2c0.1,1-0.6,1.9-1.5,2.2c0,0,0,0-0.1,0
			c0,0,0,0,0,0c0,0-0.1,0-0.1,0c1.2,2.6,3.8,4.4,6.9,4.4h8l1.5-1.2c0.2-0.1,0.3-0.3,0.3-0.5c0-0.2,0-0.3-0.1-0.5l-0.3-0.7
			c-0.2-0.3-0.2-0.7,0-1.1L29.9,19.5z"/>
		
			<linearGradient id="SVGID_33_" gradientUnits="userSpaceOnUse" x1="17.9975" y1="8.9976" x2="17.9975" y2="11.9351" gradientTransform="matrix(1 0 0 -1 0 34)">
			<stop  offset="0" style="stop-color:#8A3E68"/>
			<stop  offset="1" style="stop-color:#8A3E68;stop-opacity:0"/>
		</linearGradient>
		<path class="st33" d="M29.9,19.5c0.1-0.3,0.1-0.6-0.1-0.8l-0.4-0.5c-0.3-0.4-0.4-0.9-0.2-1.3l0.6-1.5c0.1-0.3,0-0.7-0.3-1l-1-0.8
			C28.2,13.4,28,13,28,12.6v-1.7c0-0.4-0.4-0.8-0.8-0.8h-1.9c-0.4,0-0.8-0.2-1-0.5l-1.1-1.4c-0.2-0.3-0.6-0.4-0.9-0.2l-1.7,0.8
			c-0.3,0.1-0.5,0.1-0.8,0.1l-1.8-0.4c-0.3-0.1-0.6,0-0.8,0.3L15.9,10c-0.3,0.3-0.6,0.4-1,0.4h-1.8c-0.3,0-0.6,0.2-0.7,0.4l-0.5,1
			c-0.2,0.5-0.7,0.7-1.2,0.7H9.9c-0.3,0-0.6,0.2-0.7,0.5L8.8,14c-0.2,0.4-0.7,0.8-1.2,0.8H6.8c-0.4,0-0.8,0.4-0.8,0.8V18
			c0,0,2.7,0,3.9,0c0.3,0,0.6-0.2,0.7-0.5c0.2-1,1.1-1.6,2.2-1.6c1.1,0.1,2,0.9,2,2c0.1,1-0.6,1.9-1.5,2.2c0,0,0,0-0.1,0
			c0,0,0,0,0,0c0,0-0.1,0-0.1,0c1.2,2.6,3.8,4.4,6.9,4.4h8l1.5-1.2c0.2-0.1,0.3-0.3,0.3-0.5c0-0.2,0-0.3-0.1-0.5l-0.3-0.7
			c-0.2-0.3-0.2-0.7,0-1.1L29.9,19.5z"/>
		
			<radialGradient id="SVGID_34_" cx="-883.1469" cy="473.0138" r="1" gradientTransform="matrix(-1 -1.3594 -1.8837 1.3857 18.9902 -1838.016)" gradientUnits="userSpaceOnUse">
			<stop  offset="0" style="stop-color:#8A3E68"/>
			<stop  offset="1" style="stop-color:#8A3E68;stop-opacity:0"/>
		</radialGradient>
		<path class="st34" d="M29.9,19.5c0.1-0.3,0.1-0.6-0.1-0.8l-0.4-0.5c-0.3-0.4-0.4-0.9-0.2-1.3l0.6-1.5c0.1-0.3,0-0.7-0.3-1l-1-0.8
			C28.2,13.4,28,13,28,12.6v-1.7c0-0.4-0.4-0.8-0.8-0.8h-1.9c-0.4,0-0.8-0.2-1-0.5l-1.1-1.4c-0.2-0.3-0.6-0.4-0.9-0.2l-1.7,0.8
			c-0.3,0.1-0.5,0.1-0.8,0.1l-1.8-0.4c-0.3-0.1-0.6,0-0.8,0.3L15.9,10c-0.3,0.3-0.6,0.4-1,0.4h-1.8c-0.3,0-0.6,0.2-0.7,0.4l-0.5,1
			c-0.2,0.5-0.7,0.7-1.2,0.7H9.9c-0.3,0-0.6,0.2-0.7,0.5L8.8,14c-0.2,0.4-0.7,0.8-1.2,0.8H6.8c-0.4,0-0.8,0.4-0.8,0.8V18
			c0,0,2.7,0,3.9,0c0.3,0,0.6-0.2,0.7-0.5c0.2-1,1.1-1.6,2.2-1.6c1.1,0.1,2,0.9,2,2c0.1,1-0.6,1.9-1.5,2.2c0,0,0,0-0.1,0
			c0,0,0,0,0,0c0,0-0.1,0-0.1,0c1.2,2.6,3.8,4.4,6.9,4.4h8l1.5-1.2c0.2-0.1,0.3-0.3,0.3-0.5c0-0.2,0-0.3-0.1-0.5l-0.3-0.7
			c-0.2-0.3-0.2-0.7,0-1.1L29.9,19.5z"/>
		
			<radialGradient id="SVGID_35_" cx="-444.7196" cy="442.1369" r="1" gradientTransform="matrix(5.3594 -2.5625 -3.7113 -7.7621 4029.9839 2310.4341)" gradientUnits="userSpaceOnUse">
			<stop  offset="0" style="stop-color:#795654"/>
			<stop  offset="1" style="stop-color:#795654;stop-opacity:0"/>
		</radialGradient>
		<path class="st35" d="M29.9,19.5c0.1-0.3,0.1-0.6-0.1-0.8l-0.4-0.5c-0.3-0.4-0.4-0.9-0.2-1.3l0.6-1.5c0.1-0.3,0-0.7-0.3-1l-1-0.8
			C28.2,13.4,28,13,28,12.6v-1.7c0-0.4-0.4-0.8-0.8-0.8h-1.9c-0.4,0-0.8-0.2-1-0.5l-1.1-1.4c-0.2-0.3-0.6-0.4-0.9-0.2l-1.7,0.8
			c-0.3,0.1-0.5,0.1-0.8,0.1l-1.8-0.4c-0.3-0.1-0.6,0-0.8,0.3L15.9,10c-0.3,0.3-0.6,0.4-1,0.4h-1.8c-0.3,0-0.6,0.2-0.7,0.4l-0.5,1
			c-0.2,0.5-0.7,0.7-1.2,0.7H9.9c-0.3,0-0.6,0.2-0.7,0.5L8.8,14c-0.2,0.4-0.7,0.8-1.2,0.8H6.8c-0.4,0-0.8,0.4-0.8,0.8V18
			c0,0,2.7,0,3.9,0c0.3,0,0.6-0.2,0.7-0.5c0.2-1,1.1-1.6,2.2-1.6c1.1,0.1,2,0.9,2,2c0.1,1-0.6,1.9-1.5,2.2c0,0,0,0-0.1,0
			c0,0,0,0,0,0c0,0-0.1,0-0.1,0c1.2,2.6,3.8,4.4,6.9,4.4h8l1.5-1.2c0.2-0.1,0.3-0.3,0.3-0.5c0-0.2,0-0.3-0.1-0.5l-0.3-0.7
			c-0.2-0.3-0.2-0.7,0-1.1L29.9,19.5z"/>
		
			<radialGradient id="SVGID_36_" cx="-735.0133" cy="417.4915" r="1" gradientTransform="matrix(-0.9063 -2.3125 -2.5587 1.0027 414.5954 -2100.8811)" gradientUnits="userSpaceOnUse">
			<stop  offset="0.4455" style="stop-color:#502219"/>
			<stop  offset="1" style="stop-color:#6A2F23;stop-opacity:0"/>
		</radialGradient>
		<path class="st36" d="M29.9,19.5c0.1-0.3,0.1-0.6-0.1-0.8l-0.4-0.5c-0.3-0.4-0.4-0.9-0.2-1.3l0.6-1.5c0.1-0.3,0-0.7-0.3-1l-1-0.8
			C28.2,13.4,28,13,28,12.6v-1.7c0-0.4-0.4-0.8-0.8-0.8h-1.9c-0.4,0-0.8-0.2-1-0.5l-1.1-1.4c-0.2-0.3-0.6-0.4-0.9-0.2l-1.7,0.8
			c-0.3,0.1-0.5,0.1-0.8,0.1l-1.8-0.4c-0.3-0.1-0.6,0-0.8,0.3L15.9,10c-0.3,0.3-0.6,0.4-1,0.4h-1.8c-0.3,0-0.6,0.2-0.7,0.4l-0.5,1
			c-0.2,0.5-0.7,0.7-1.2,0.7H9.9c-0.3,0-0.6,0.2-0.7,0.5L8.8,14c-0.2,0.4-0.7,0.8-1.2,0.8H6.8c-0.4,0-0.8,0.4-0.8,0.8V18
			c0,0,2.7,0,3.9,0c0.3,0,0.6-0.2,0.7-0.5c0.2-1,1.1-1.6,2.2-1.6c1.1,0.1,2,0.9,2,2c0.1,1-0.6,1.9-1.5,2.2c0,0,0,0-0.1,0
			c0,0,0,0,0,0c0,0-0.1,0-0.1,0c1.2,2.6,3.8,4.4,6.9,4.4h8l1.5-1.2c0.2-0.1,0.3-0.3,0.3-0.5c0-0.2,0-0.3-0.1-0.5l-0.3-0.7
			c-0.2-0.3-0.2-0.7,0-1.1L29.9,19.5z"/>
		
			<radialGradient id="SVGID_37_" cx="-165.954" cy="563.6245" r="1" gradientTransform="matrix(1.3125 1.6875 1.4344 -1.1156 -575.7451 918.1545)" gradientUnits="userSpaceOnUse">
			<stop  offset="0" style="stop-color:#BD7E76"/>
			<stop  offset="1" style="stop-color:#BD7E76;stop-opacity:0"/>
		</radialGradient>
		<path class="st37" d="M29.9,19.5c0.1-0.3,0.1-0.6-0.1-0.8l-0.4-0.5c-0.3-0.4-0.4-0.9-0.2-1.3l0.6-1.5c0.1-0.3,0-0.7-0.3-1l-1-0.8
			C28.2,13.4,28,13,28,12.6v-1.7c0-0.4-0.4-0.8-0.8-0.8h-1.9c-0.4,0-0.8-0.2-1-0.5l-1.1-1.4c-0.2-0.3-0.6-0.4-0.9-0.2l-1.7,0.8
			c-0.3,0.1-0.5,0.1-0.8,0.1l-1.8-0.4c-0.3-0.1-0.6,0-0.8,0.3L15.9,10c-0.3,0.3-0.6,0.4-1,0.4h-1.8c-0.3,0-0.6,0.2-0.7,0.4l-0.5,1
			c-0.2,0.5-0.7,0.7-1.2,0.7H9.9c-0.3,0-0.6,0.2-0.7,0.5L8.8,14c-0.2,0.4-0.7,0.8-1.2,0.8H6.8c-0.4,0-0.8,0.4-0.8,0.8V18
			c0,0,2.7,0,3.9,0c0.3,0,0.6-0.2,0.7-0.5c0.2-1,1.1-1.6,2.2-1.6c1.1,0.1,2,0.9,2,2c0.1,1-0.6,1.9-1.5,2.2c0,0,0,0-0.1,0
			c0,0,0,0,0,0c0,0-0.1,0-0.1,0c1.2,2.6,3.8,4.4,6.9,4.4h8l1.5-1.2c0.2-0.1,0.3-0.3,0.3-0.5c0-0.2,0-0.3-0.1-0.5l-0.3-0.7
			c-0.2-0.3-0.2-0.7,0-1.1L29.9,19.5z"/>
		
			<radialGradient id="SVGID_38_" cx="-200.7397" cy="479.9356" r="1" gradientTransform="matrix(1.8594 1.5312 1.1285 -1.3703 -158.3694 976.2118)" gradientUnits="userSpaceOnUse">
			<stop  offset="0" style="stop-color:#BD7E76"/>
			<stop  offset="0.9986" style="stop-color:#BD7E76;stop-opacity:0"/>
		</radialGradient>
		<path class="st38" d="M29.9,19.5c0.1-0.3,0.1-0.6-0.1-0.8l-0.4-0.5c-0.3-0.4-0.4-0.9-0.2-1.3l0.6-1.5c0.1-0.3,0-0.7-0.3-1l-1-0.8
			C28.2,13.4,28,13,28,12.6v-1.7c0-0.4-0.4-0.8-0.8-0.8h-1.9c-0.4,0-0.8-0.2-1-0.5l-1.1-1.4c-0.2-0.3-0.6-0.4-0.9-0.2l-1.7,0.8
			c-0.3,0.1-0.5,0.1-0.8,0.1l-1.8-0.4c-0.3-0.1-0.6,0-0.8,0.3L15.9,10c-0.3,0.3-0.6,0.4-1,0.4h-1.8c-0.3,0-0.6,0.2-0.7,0.4l-0.5,1
			c-0.2,0.5-0.7,0.7-1.2,0.7H9.9c-0.3,0-0.6,0.2-0.7,0.5L8.8,14c-0.2,0.4-0.7,0.8-1.2,0.8H6.8c-0.4,0-0.8,0.4-0.8,0.8V18
			c0,0,2.7,0,3.9,0c0.3,0,0.6-0.2,0.7-0.5c0.2-1,1.1-1.6,2.2-1.6c1.1,0.1,2,0.9,2,2c0.1,1-0.6,1.9-1.5,2.2c0,0,0,0-0.1,0
			c0,0,0,0,0,0c0,0-0.1,0-0.1,0c1.2,2.6,3.8,4.4,6.9,4.4h8l1.5-1.2c0.2-0.1,0.3-0.3,0.3-0.5c0-0.2,0-0.3-0.1-0.5l-0.3-0.7
			c-0.2-0.3-0.2-0.7,0-1.1L29.9,19.5z"/>
		
			<radialGradient id="SVGID_39_" cx="-361.6704" cy="867.9037" r="1" gradientTransform="matrix(-0.625 3.0313 1.5925 0.3284 -1586.7625 818.5268)" gradientUnits="userSpaceOnUse">
			<stop  offset="0" style="stop-color:#723B33"/>
			<stop  offset="1" style="stop-color:#723B33;stop-opacity:0"/>
		</radialGradient>
		<path class="st39" d="M29.9,19.5c0.1-0.3,0.1-0.6-0.1-0.8l-0.4-0.5c-0.3-0.4-0.4-0.9-0.2-1.3l0.6-1.5c0.1-0.3,0-0.7-0.3-1l-1-0.8
			C28.2,13.4,28,13,28,12.6v-1.7c0-0.4-0.4-0.8-0.8-0.8h-1.9c-0.4,0-0.8-0.2-1-0.5l-1.1-1.4c-0.2-0.3-0.6-0.4-0.9-0.2l-1.7,0.8
			c-0.3,0.1-0.5,0.1-0.8,0.1l-1.8-0.4c-0.3-0.1-0.6,0-0.8,0.3L15.9,10c-0.3,0.3-0.6,0.4-1,0.4h-1.8c-0.3,0-0.6,0.2-0.7,0.4l-0.5,1
			c-0.2,0.5-0.7,0.7-1.2,0.7H9.9c-0.3,0-0.6,0.2-0.7,0.5L8.8,14c-0.2,0.4-0.7,0.8-1.2,0.8H6.8c-0.4,0-0.8,0.4-0.8,0.8V18
			c0,0,2.7,0,3.9,0c0.3,0,0.6-0.2,0.7-0.5c0.2-1,1.1-1.6,2.2-1.6c1.1,0.1,2,0.9,2,2c0.1,1-0.6,1.9-1.5,2.2c0,0,0,0-0.1,0
			c0,0,0,0,0,0c0,0-0.1,0-0.1,0c1.2,2.6,3.8,4.4,6.9,4.4h8l1.5-1.2c0.2-0.1,0.3-0.3,0.3-0.5c0-0.2,0-0.3-0.1-0.5l-0.3-0.7
			c-0.2-0.3-0.2-0.7,0-1.1L29.9,19.5z"/>
		
			<radialGradient id="SVGID_40_" cx="-507.6557" cy="820.8474" r="1" gradientTransform="matrix(-2.5313 2 1.3842 1.7519 -2395.1279 -413.7655)" gradientUnits="userSpaceOnUse">
			<stop  offset="0" style="stop-color:#723B33"/>
			<stop  offset="1" style="stop-color:#723B33;stop-opacity:0"/>
		</radialGradient>
		<path class="st40" d="M29.9,19.5c0.1-0.3,0.1-0.6-0.1-0.8l-0.4-0.5c-0.3-0.4-0.4-0.9-0.2-1.3l0.6-1.5c0.1-0.3,0-0.7-0.3-1l-1-0.8
			C28.2,13.4,28,13,28,12.6v-1.7c0-0.4-0.4-0.8-0.8-0.8h-1.9c-0.4,0-0.8-0.2-1-0.5l-1.1-1.4c-0.2-0.3-0.6-0.4-0.9-0.2l-1.7,0.8
			c-0.3,0.1-0.5,0.1-0.8,0.1l-1.8-0.4c-0.3-0.1-0.6,0-0.8,0.3L15.9,10c-0.3,0.3-0.6,0.4-1,0.4h-1.8c-0.3,0-0.6,0.2-0.7,0.4l-0.5,1
			c-0.2,0.5-0.7,0.7-1.2,0.7H9.9c-0.3,0-0.6,0.2-0.7,0.5L8.8,14c-0.2,0.4-0.7,0.8-1.2,0.8H6.8c-0.4,0-0.8,0.4-0.8,0.8V18
			c0,0,2.7,0,3.9,0c0.3,0,0.6-0.2,0.7-0.5c0.2-1,1.1-1.6,2.2-1.6c1.1,0.1,2,0.9,2,2c0.1,1-0.6,1.9-1.5,2.2c0,0,0,0-0.1,0
			c0,0,0,0,0,0c0,0-0.1,0-0.1,0c1.2,2.6,3.8,4.4,6.9,4.4h8l1.5-1.2c0.2-0.1,0.3-0.3,0.3-0.5c0-0.2,0-0.3-0.1-0.5l-0.3-0.7
			c-0.2-0.3-0.2-0.7,0-1.1L29.9,19.5z"/>
		
			<radialGradient id="SVGID_41_" cx="-519.4896" cy="893.9749" r="1" gradientTransform="matrix(-1.9062 1.4687 1.0967 1.4234 -1941.9365 -497.0627)" gradientUnits="userSpaceOnUse">
			<stop  offset="0" style="stop-color:#723B33"/>
			<stop  offset="1" style="stop-color:#723B33;stop-opacity:0"/>
		</radialGradient>
		<path class="st41" d="M29.9,19.5c0.1-0.3,0.1-0.6-0.1-0.8l-0.4-0.5c-0.3-0.4-0.4-0.9-0.2-1.3l0.6-1.5c0.1-0.3,0-0.7-0.3-1l-1-0.8
			C28.2,13.4,28,13,28,12.6v-1.7c0-0.4-0.4-0.8-0.8-0.8h-1.9c-0.4,0-0.8-0.2-1-0.5l-1.1-1.4c-0.2-0.3-0.6-0.4-0.9-0.2l-1.7,0.8
			c-0.3,0.1-0.5,0.1-0.8,0.1l-1.8-0.4c-0.3-0.1-0.6,0-0.8,0.3L15.9,10c-0.3,0.3-0.6,0.4-1,0.4h-1.8c-0.3,0-0.6,0.2-0.7,0.4l-0.5,1
			c-0.2,0.5-0.7,0.7-1.2,0.7H9.9c-0.3,0-0.6,0.2-0.7,0.5L8.8,14c-0.2,0.4-0.7,0.8-1.2,0.8H6.8c-0.4,0-0.8,0.4-0.8,0.8V18
			c0,0,2.7,0,3.9,0c0.3,0,0.6-0.2,0.7-0.5c0.2-1,1.1-1.6,2.2-1.6c1.1,0.1,2,0.9,2,2c0.1,1-0.6,1.9-1.5,2.2c0,0,0,0-0.1,0
			c0,0,0,0,0,0c0,0-0.1,0-0.1,0c1.2,2.6,3.8,4.4,6.9,4.4h8l1.5-1.2c0.2-0.1,0.3-0.3,0.3-0.5c0-0.2,0-0.3-0.1-0.5l-0.3-0.7
			c-0.2-0.3-0.2-0.7,0-1.1L29.9,19.5z"/>
		
			<radialGradient id="SVGID_42_" cx="-569.4906" cy="828.0298" r="1" gradientTransform="matrix(-2.8438 1.1562 0.7621 1.8744 -2219.821 -877.022)" gradientUnits="userSpaceOnUse">
			<stop  offset="0" style="stop-color:#723B33"/>
			<stop  offset="1" style="stop-color:#723B33;stop-opacity:0"/>
		</radialGradient>
		<path class="st42" d="M29.9,19.5c0.1-0.3,0.1-0.6-0.1-0.8l-0.4-0.5c-0.3-0.4-0.4-0.9-0.2-1.3l0.6-1.5c0.1-0.3,0-0.7-0.3-1l-1-0.8
			C28.2,13.4,28,13,28,12.6v-1.7c0-0.4-0.4-0.8-0.8-0.8h-1.9c-0.4,0-0.8-0.2-1-0.5l-1.1-1.4c-0.2-0.3-0.6-0.4-0.9-0.2l-1.7,0.8
			c-0.3,0.1-0.5,0.1-0.8,0.1l-1.8-0.4c-0.3-0.1-0.6,0-0.8,0.3L15.9,10c-0.3,0.3-0.6,0.4-1,0.4h-1.8c-0.3,0-0.6,0.2-0.7,0.4l-0.5,1
			c-0.2,0.5-0.7,0.7-1.2,0.7H9.9c-0.3,0-0.6,0.2-0.7,0.5L8.8,14c-0.2,0.4-0.7,0.8-1.2,0.8H6.8c-0.4,0-0.8,0.4-0.8,0.8V18
			c0,0,2.7,0,3.9,0c0.3,0,0.6-0.2,0.7-0.5c0.2-1,1.1-1.6,2.2-1.6c1.1,0.1,2,0.9,2,2c0.1,1-0.6,1.9-1.5,2.2c0,0,0,0-0.1,0
			c0,0,0,0,0,0c0,0-0.1,0-0.1,0c1.2,2.6,3.8,4.4,6.9,4.4h8l1.5-1.2c0.2-0.1,0.3-0.3,0.3-0.5c0-0.2,0-0.3-0.1-0.5l-0.3-0.7
			c-0.2-0.3-0.2-0.7,0-1.1L29.9,19.5z"/>
		
			<radialGradient id="SVGID_43_" cx="-705.3121" cy="819.4088" r="1" gradientTransform="matrix(-2.0312 0.125 0.1039 1.6891 -1487.656 -1275.0909)" gradientUnits="userSpaceOnUse">
			<stop  offset="0" style="stop-color:#723B33"/>
			<stop  offset="1" style="stop-color:#723B33;stop-opacity:0"/>
		</radialGradient>
		<path class="st43" d="M29.9,19.5c0.1-0.3,0.1-0.6-0.1-0.8l-0.4-0.5c-0.3-0.4-0.4-0.9-0.2-1.3l0.6-1.5c0.1-0.3,0-0.7-0.3-1l-1-0.8
			C28.2,13.4,28,13,28,12.6v-1.7c0-0.4-0.4-0.8-0.8-0.8h-1.9c-0.4,0-0.8-0.2-1-0.5l-1.1-1.4c-0.2-0.3-0.6-0.4-0.9-0.2l-1.7,0.8
			c-0.3,0.1-0.5,0.1-0.8,0.1l-1.8-0.4c-0.3-0.1-0.6,0-0.8,0.3L15.9,10c-0.3,0.3-0.6,0.4-1,0.4h-1.8c-0.3,0-0.6,0.2-0.7,0.4l-0.5,1
			c-0.2,0.5-0.7,0.7-1.2,0.7H9.9c-0.3,0-0.6,0.2-0.7,0.5L8.8,14c-0.2,0.4-0.7,0.8-1.2,0.8H6.8c-0.4,0-0.8,0.4-0.8,0.8V18
			c0,0,2.7,0,3.9,0c0.3,0,0.6-0.2,0.7-0.5c0.2-1,1.1-1.6,2.2-1.6c1.1,0.1,2,0.9,2,2c0.1,1-0.6,1.9-1.5,2.2c0,0,0,0-0.1,0
			c0,0,0,0,0,0c0,0-0.1,0-0.1,0c1.2,2.6,3.8,4.4,6.9,4.4h8l1.5-1.2c0.2-0.1,0.3-0.3,0.3-0.5c0-0.2,0-0.3-0.1-0.5l-0.3-0.7
			c-0.2-0.3-0.2-0.7,0-1.1L29.9,19.5z"/>
		
			<radialGradient id="SVGID_44_" cx="-316.8459" cy="827.9315" r="1" gradientTransform="matrix(-3.125236e-02 2.875 1.5701 1.706756e-02 -1293.3235 905.2723)" gradientUnits="userSpaceOnUse">
			<stop  offset="0" style="stop-color:#723B33"/>
			<stop  offset="1" style="stop-color:#723B33;stop-opacity:0"/>
		</radialGradient>
		<path class="st44" d="M29.9,19.5c0.1-0.3,0.1-0.6-0.1-0.8l-0.4-0.5c-0.3-0.4-0.4-0.9-0.2-1.3l0.6-1.5c0.1-0.3,0-0.7-0.3-1l-1-0.8
			C28.2,13.4,28,13,28,12.6v-1.7c0-0.4-0.4-0.8-0.8-0.8h-1.9c-0.4,0-0.8-0.2-1-0.5l-1.1-1.4c-0.2-0.3-0.6-0.4-0.9-0.2l-1.7,0.8
			c-0.3,0.1-0.5,0.1-0.8,0.1l-1.8-0.4c-0.3-0.1-0.6,0-0.8,0.3L15.9,10c-0.3,0.3-0.6,0.4-1,0.4h-1.8c-0.3,0-0.6,0.2-0.7,0.4l-0.5,1
			c-0.2,0.5-0.7,0.7-1.2,0.7H9.9c-0.3,0-0.6,0.2-0.7,0.5L8.8,14c-0.2,0.4-0.7,0.8-1.2,0.8H6.8c-0.4,0-0.8,0.4-0.8,0.8V18
			c0,0,2.7,0,3.9,0c0.3,0,0.6-0.2,0.7-0.5c0.2-1,1.1-1.6,2.2-1.6c1.1,0.1,2,0.9,2,2c0.1,1-0.6,1.9-1.5,2.2c0,0,0,0-0.1,0
			c0,0,0,0,0,0c0,0-0.1,0-0.1,0c1.2,2.6,3.8,4.4,6.9,4.4h8l1.5-1.2c0.2-0.1,0.3-0.3,0.3-0.5c0-0.2,0-0.3-0.1-0.5l-0.3-0.7
			c-0.2-0.3-0.2-0.7,0-1.1L29.9,19.5z"/>
	</g>
	
		<linearGradient id="SVGID_45_" gradientUnits="userSpaceOnUse" x1="8.3068" y1="11.4799" x2="7.7279" y2="11.4799" gradientTransform="matrix(1 0 0 -1 0 34)">
		<stop  offset="0.225" style="stop-color:#594C4F"/>
		<stop  offset="1" style="stop-color:#392833"/>
	</linearGradient>
	<path class="st45" d="M7.8,21.5L7.8,21.5c0.3,0,0.5,0.2,0.5,0.5v1c0,0.3-0.2,0.5-0.5,0.5l0,0c-0.3,0-0.5-0.2-0.5-0.5v-1
		C7.3,21.7,7.5,21.5,7.8,21.5z"/>
	
		<linearGradient id="SVGID_46_" gradientUnits="userSpaceOnUse" x1="7.8068" y1="10.572" x2="7.8068" y2="11.5267" gradientTransform="matrix(1 0 0 -1 0 34)">
		<stop  offset="0" style="stop-color:#492847"/>
		<stop  offset="1" style="stop-color:#552D52;stop-opacity:0"/>
	</linearGradient>
	<path class="st46" d="M7.8,21.5L7.8,21.5c0.3,0,0.5,0.2,0.5,0.5v1c0,0.3-0.2,0.5-0.5,0.5l0,0c-0.3,0-0.5-0.2-0.5-0.5v-1
		C7.3,21.7,7.5,21.5,7.8,21.5z"/>
	
		<radialGradient id="SVGID_47_" cx="-1092.9253" cy="275.4292" r="1" gradientTransform="matrix(-0.3857 -0.9558 -1.0255 0.4139 -131.1484 -1136.1233)" gradientUnits="userSpaceOnUse">
		<stop  offset="0.814" style="stop-color:#594C4F;stop-opacity:0"/>
		<stop  offset="1" style="stop-color:#594C4F"/>
	</radialGradient>
	<path class="st47" d="M7.8,21.5L7.8,21.5c0.3,0,0.5,0.2,0.5,0.5v1c0,0.3-0.2,0.5-0.5,0.5l0,0c-0.3,0-0.5-0.2-0.5-0.5v-1
		C7.3,21.7,7.5,21.5,7.8,21.5z"/>
	<g>
		<rect x="26.7" y="25.1" class="st48" width="1" height="3.8"/>
	</g>
	<g>
		
			<linearGradient id="SVGID_48_" gradientUnits="userSpaceOnUse" x1="10.6702" y1="5.1642" x2="13.2639" y2="10.0861" gradientTransform="matrix(1 0 0 -1 0 34)">
			<stop  offset="0" style="stop-color:#FFCD9F"/>
			<stop  offset="1" style="stop-color:#FFCD9F;stop-opacity:0"/>
		</linearGradient>
		<path class="st49" d="M12,25.1h1l-1.8,3.8h-1L12,25.1z"/>
	</g>
	<g>
		
			<linearGradient id="SVGID_49_" gradientUnits="userSpaceOnUse" x1="18.3558" y1="25.3147" x2="20.0641" y2="22.9945" gradientTransform="matrix(1 0 0 -1 0 34)">
			<stop  offset="0" style="stop-color:#BD7E76"/>
			<stop  offset="1" style="stop-color:#BD7E76;stop-opacity:0"/>
		</linearGradient>
		<path class="st50" d="M17.9,8.9l1.1,3l2.1-1.9L17.9,8.9z"/>
	</g>
	<g>
		
			<linearGradient id="SVGID_50_" gradientUnits="userSpaceOnUse" x1="23.5431" y1="25.0508" x2="23.5588" y2="22.5665" gradientTransform="matrix(1 0 0 -1 0 34)">
			<stop  offset="0" style="stop-color:#BD7E76"/>
			<stop  offset="1" style="stop-color:#BD7E76;stop-opacity:0"/>
		</linearGradient>
		<path class="st51" d="M22.7,8.4l-0.6,2.9l2.9,0.1L22.7,8.4z"/>
	</g>
	<g>
		
			<linearGradient id="SVGID_51_" gradientUnits="userSpaceOnUse" x1="27.7246" y1="22.6468" x2="26.3645" y2="20.1562" gradientTransform="matrix(1 0 0 -1 0 34)">
			<stop  offset="0" style="stop-color:#BD7E76"/>
			<stop  offset="1" style="stop-color:#BD7E76;stop-opacity:0"/>
		</linearGradient>
		<path class="st52" d="M27.5,10.7l-2.1,2.1l2.2,1.5L27.5,10.7z"/>
	</g>
	<g>
		
			<linearGradient id="SVGID_52_" gradientUnits="userSpaceOnUse" x1="28.9291" y1="19.3528" x2="26.2725" y2="18.355" gradientTransform="matrix(1 0 0 -1 0 34)">
			<stop  offset="0" style="stop-color:#BD7E76"/>
			<stop  offset="1" style="stop-color:#BD7E76;stop-opacity:0"/>
		</linearGradient>
		<path class="st53" d="M29.5,14.8l-2.6,1.2L26.6,15L29.5,14.8z"/>
	</g>
	<g>
		
			<linearGradient id="SVGID_53_" gradientUnits="userSpaceOnUse" x1="29.9514" y1="15.3014" x2="27.4827" y2="15.6764" gradientTransform="matrix(1 0 0 -1 0 34)">
			<stop  offset="0" style="stop-color:#BD7E76"/>
			<stop  offset="1" style="stop-color:#BD7E76;stop-opacity:0"/>
		</linearGradient>
		<path class="st54" d="M29.6,18.9l-1.1-1.2l-0.2,1.5L29.6,18.9z"/>
	</g>
	<g>
		
			<linearGradient id="SVGID_54_" gradientUnits="userSpaceOnUse" x1="29.7036" y1="12.0425" x2="27.2348" y2="12.4175" gradientTransform="matrix(1 0 0 -1 0 34)">
			<stop  offset="0" style="stop-color:#BD7E76"/>
			<stop  offset="1" style="stop-color:#BD7E76;stop-opacity:0"/>
		</linearGradient>
		<path class="st55" d="M29.6,22.6l-0.9-1.5L28.4,22L29.6,22.6z"/>
	</g>
	
		<linearGradient id="SVGID_55_" gradientUnits="userSpaceOnUse" x1="13.321" y1="14.1692" x2="12.8522" y2="13.2473" gradientTransform="matrix(1 0 0 -1 0 34)">
		<stop  offset="0" style="stop-color:#CC6C84"/>
		<stop  offset="1" style="stop-color:#CC6C84;stop-opacity:0"/>
	</linearGradient>
	<path class="st56" d="M11.6,20h1.5c0.3,0.7,0.7,1.3,0.9,1.6C12.4,21.7,11.7,20.6,11.6,20z"/>
	
		<linearGradient id="SVGID_56_" gradientUnits="userSpaceOnUse" x1="10.7814" y1="16.0012" x2="10.0861" y2="15.7668" gradientTransform="matrix(1 0 0 -1 0 34)">
		<stop  offset="0" style="stop-color:#C5753C"/>
		<stop  offset="1" style="stop-color:#C5753C;stop-opacity:0"/>
	</linearGradient>
	<path class="st57" d="M9.8,19c0.7-0.3,0.8-1.2,0.8-1.5C10.4,17.9,10,18,9.9,18C9.8,18.3,9.8,18.8,9.8,19z"/>
</g>
<g id="图层_5">
	<g>
		
			<radialGradient id="SVGID_57_" cx="-925.9829" cy="476.0033" r="0.3771" gradientTransform="matrix(-0.7201 -1.1387 -7.5822 4.7948 2965.3672 -3324.6252)" gradientUnits="userSpaceOnUse">
			<stop  offset="5.586590e-03" style="stop-color:#CBBDDC"/>
			<stop  offset="1" style="stop-color:#D2CCDB"/>
		</radialGradient>
		<path class="st58" d="M21.3,13.8c0,0-0.1,0-0.1,0c-0.1,0-0.1-0.2-0.1-0.3c0.6-1.1,1.5-2,2.7-2.4c0.4-0.1,0.9-0.2,1.4-0.2
			c0.1,0,0.2,0.1,0.2,0.2c0,0.1-0.1,0.2-0.2,0.2c-0.4,0-0.8,0.1-1.3,0.2c-1.1,0.4-2,1.2-2.5,2.2C21.4,13.8,21.3,13.8,21.3,13.8z"/>
	</g>
	<g>
		
			<linearGradient id="SVGID_58_" gradientUnits="userSpaceOnUse" x1="21.9684" y1="15.9883" x2="26.2899" y2="19.5235" gradientTransform="matrix(0.9473 -0.3203 -0.3203 -0.9473 5.5315 39.1034)">
			<stop  offset="5.586590e-03" style="stop-color:#CCC3D9"/>
			<stop  offset="1" style="stop-color:#CABDDD"/>
		</linearGradient>
		<path class="st59" d="M21.8,17.6c-0.1,0-0.2,0-0.2-0.1c-0.7-2.2,0.4-4.5,2.6-5.2c0.1,0,0.2,0,0.2,0.1s0,0.2-0.1,0.2
			c-2,0.7-3,2.8-2.4,4.8C22,17.5,21.9,17.6,21.8,17.6z"/>
	</g>
	
		<linearGradient id="SVGID_59_" gradientUnits="userSpaceOnUse" x1="26.0818" y1="9.6531" x2="27.3041" y2="13.8565" gradientTransform="matrix(0.9473 -0.3203 -0.3203 -0.9473 5.5315 39.1034)">
		<stop  offset="0" style="stop-color:#459589"/>
		<stop  offset="1" style="stop-color:#5AB57A"/>
	</linearGradient>
	<path class="st60" d="M22.6,17.2l0.3,1c0.7,2.2,3.1,3.4,5.3,2.6l2.7-0.9c0.2-0.1,0.4-0.4,0.3-0.6l-0.1-0.2
		c-0.7-2.2-3.1-3.4-5.3-2.6l-2.8,1L22.6,17.2z"/>
	
		<linearGradient id="SVGID_60_" gradientUnits="userSpaceOnUse" x1="27.0189" y1="9.7889" x2="27.0189" y2="10.4895" gradientTransform="matrix(0.9473 -0.3203 -0.3203 -0.9473 5.5315 39.1034)">
		<stop  offset="0" style="stop-color:#528289"/>
		<stop  offset="1" style="stop-color:#528289;stop-opacity:0"/>
	</linearGradient>
	<path class="st61" d="M22.6,17.2l0.3,1c0.7,2.2,3.1,3.4,5.3,2.6l2.7-0.9c0.2-0.1,0.4-0.4,0.3-0.6l-0.1-0.2
		c-0.7-2.2-3.1-3.4-5.3-2.6l-2.8,1L22.6,17.2z"/>
	<g>
		
			<linearGradient id="SVGID_61_" gradientUnits="userSpaceOnUse" x1="24.188" y1="14.6914" x2="28.9931" y2="11.0082" gradientTransform="matrix(0.9473 -0.3203 -0.3203 -0.9473 5.5315 39.1034)">
			<stop  offset="0" style="stop-color:#4BBC85"/>
			<stop  offset="1" style="stop-color:#46AF84"/>
		</linearGradient>
		<path class="st62" d="M23.3,17.5l0.3,0.8c0.6,1.8,2.6,2.7,4.6,2.1l2.4-0.8c0.2-0.1,0.3-0.3,0.3-0.5l-0.1-0.2
			c-0.6-1.8-2.6-2.7-4.6-2.1l-2.4,0.8L23.3,17.5z"/>
	</g>
	<g>
		
			<linearGradient id="SVGID_62_" gradientUnits="userSpaceOnUse" x1="26.284" y1="12.535" x2="26.597" y2="13.1759" gradientTransform="matrix(0.9473 -0.3203 -0.3203 -0.9473 5.5315 39.1034)">
			<stop  offset="0" style="stop-color:#33A171"/>
			<stop  offset="1" style="stop-color:#3FB774"/>
		</linearGradient>
		<path class="st63" d="M28.6,19.3l-4.5-0.8c-0.3,0-0.4-0.3-0.4-0.5c0-0.2,0.3-0.4,0.5-0.4l4.5,0.7c0.3,0,0.5,0.3,0.4,0.6
			C29.2,19.2,28.9,19.4,28.6,19.3z"/>
	</g>
	<g>
		
			<linearGradient id="SVGID_63_" gradientUnits="userSpaceOnUse" x1="29.9097" y1="14.8665" x2="32.712" y2="17.3111" gradientTransform="matrix(0.9473 -0.3203 -0.3203 -0.9473 5.5315 39.1034)">
			<stop  offset="5.586590e-03" style="stop-color:#C2B4D9"/>
			<stop  offset="1" style="stop-color:#C8C4D5"/>
		</linearGradient>
		<path class="st64" d="M29.1,15.3c-0.1,0-0.2,0-0.2-0.1s0-0.2,0.1-0.2c0.5-0.2,0.8-0.4,1.1-0.8c0.4-0.6,0.6-1.4,0.3-2.1
			c0-0.1,0-0.2,0.1-0.2c0.1,0,0.2,0,0.2,0.1c0.3,0.8,0.1,1.8-0.4,2.5C30.1,14.8,29.6,15.1,29.1,15.3z"/>
	</g>
	<g>
		
			<linearGradient id="SVGID_64_" gradientUnits="userSpaceOnUse" x1="26.9442" y1="16.5756" x2="32.2979" y2="19.2264" gradientTransform="matrix(0.9473 -0.3203 -0.3203 -0.9473 5.5315 39.1034)">
			<stop  offset="0" style="stop-color:#4FC679"/>
			<stop  offset="1" style="stop-color:#4DBF82"/>
		</linearGradient>
		<path class="st65" d="M29.5,10.3l0.2,0.7c0.5,1.5-0.3,3.1-1.8,3.6l-1.9,0.6c-0.2,0.1-0.3,0-0.4-0.2l-0.1-0.2
			c-0.5-1.5,0.3-3.2,1.8-3.7l1.9-0.6L29.5,10.3z"/>
	</g>
	<g>
		
			<linearGradient id="SVGID_65_" gradientUnits="userSpaceOnUse" x1="27.2984" y1="16.787" x2="31.7229" y2="18.9777" gradientTransform="matrix(0.9473 -0.3203 -0.3203 -0.9473 5.5315 39.1034)">
			<stop  offset="0" style="stop-color:#4FC886"/>
			<stop  offset="1" style="stop-color:#4EBD8E"/>
		</linearGradient>
		<path class="st66" d="M29.3,10.7l-0.1,0.5c0.4,1.2-0.2,2.6-1.5,3.1l-1.6,0.6c-0.1,0-0.3,0-0.3-0.2l0-0.1c-0.4-1.2,0.3-2.6,1.6-3.1
			l1.8-0.6L29.3,10.7z"/>
	</g>
	<g>
		
			<linearGradient id="SVGID_66_" gradientUnits="userSpaceOnUse" x1="27.3994" y1="17.5431" x2="26.6542" y2="17.3572" gradientTransform="matrix(0.9473 -0.3203 -0.3203 -0.9473 5.5315 39.1034)">
			<stop  offset="0.8089" style="stop-color:#84D59E"/>
			<stop  offset="1" style="stop-color:#84D49E;stop-opacity:0"/>
		</linearGradient>
		<path class="st67" d="M26.3,12.2c-0.4,0.4-1,1.4-0.5,2.9"/>
	</g>
	<g>
		
			<linearGradient id="SVGID_67_" gradientUnits="userSpaceOnUse" x1="30.2748" y1="17.7058" x2="32.0134" y2="18.0801" gradientTransform="matrix(0.9473 -0.3203 -0.3203 -0.9473 5.5315 39.1034)">
			<stop  offset="0" style="stop-color:#63D393;stop-opacity:0"/>
			<stop  offset="1" style="stop-color:#63D393"/>
		</linearGradient>
		<path class="st68" d="M28.6,13.8c0.6-0.5,1.3-1.7,0.8-2.9"/>
	</g>
	
		<linearGradient id="SVGID_68_" gradientUnits="userSpaceOnUse" x1="32.0257" y1="19.8875" x2="28.2314" y2="17.8734" gradientTransform="matrix(0.9473 -0.3203 -0.3203 -0.9473 5.5315 39.1034)">
		<stop  offset="0" style="stop-color:#269D63"/>
		<stop  offset="1" style="stop-color:#34C075"/>
	</linearGradient>
	<path class="st69" d="M26.9,13.9C26.9,13.9,26.9,13.9,26.9,13.9l2.4-2.6c0.2-0.2,0.3-0.6,0.2-0.9l-0.3-0.8c0-0.1-0.1-0.2-0.2-0.1
		c-0.1,0-0.2,0.1-0.1,0.2l0.3,0.8c0.1,0.2,0,0.4-0.1,0.5l-2.4,2.6c-0.1,0.1-0.1,0.2,0,0.3C26.7,13.9,26.8,13.9,26.9,13.9z"/>
	
		<radialGradient id="SVGID_69_" cx="-710.3253" cy="1631.3341" r="0.3771" gradientTransform="matrix(-0.3685 0.471 0.4808 0.3762 -1016.9014 -269.6769)" gradientUnits="userSpaceOnUse">
		<stop  offset="0" style="stop-color:#66B386"/>
		<stop  offset="1" style="stop-color:#66B386;stop-opacity:0"/>
	</radialGradient>
	<path class="st70" d="M26.9,13.9C26.9,13.9,26.9,13.9,26.9,13.9l2.4-2.6c0.2-0.2,0.3-0.6,0.2-0.9l-0.3-0.8c0-0.1-0.1-0.2-0.2-0.1
		c-0.1,0-0.2,0.1-0.1,0.2l0.3,0.8c0.1,0.2,0,0.4-0.1,0.5l-2.4,2.6c-0.1,0.1-0.1,0.2,0,0.3C26.7,13.9,26.8,13.9,26.9,13.9z"/>
	
		<radialGradient id="SVGID_70_" cx="432.0408" cy="431.6617" r="0.3771" gradientTransform="matrix(0.7074 0.2563 0.3213 -0.8867 -415.2859 282.6912)" gradientUnits="userSpaceOnUse">
		<stop  offset="0" style="stop-color:#60A576"/>
		<stop  offset="1" style="stop-color:#60A576;stop-opacity:0"/>
	</radialGradient>
	<path class="st71" d="M26.9,13.9C26.9,13.9,26.9,13.9,26.9,13.9l2.4-2.6c0.2-0.2,0.3-0.6,0.2-0.9l-0.3-0.8c0-0.1-0.1-0.2-0.2-0.1
		c-0.1,0-0.2,0.1-0.1,0.2l0.3,0.8c0.1,0.2,0,0.4-0.1,0.5l-2.4,2.6c-0.1,0.1-0.1,0.2,0,0.3C26.7,13.9,26.8,13.9,26.9,13.9z"/>
	<g>
		
			<linearGradient id="SVGID_71_" gradientUnits="userSpaceOnUse" x1="27.8248" y1="19.1656" x2="32.8569" y2="18.388" gradientTransform="matrix(0.9473 -0.3203 -0.3203 -0.9473 5.5315 39.1034)">
			<stop  offset="0" style="stop-color:#53CD8B"/>
			<stop  offset="1" style="stop-color:#5BB180"/>
		</linearGradient>
		<path class="st72" d="M26.9,13.7l2.3-2.5c0.2-0.2,0.2-0.5,0.2-0.7l-0.3-0.8"/>
	</g>
	<g>
		
			<linearGradient id="SVGID_72_" gradientUnits="userSpaceOnUse" x1="32.8803" y1="18.3676" x2="31.4277" y2="15.2513" gradientTransform="matrix(0.9473 -0.3203 -0.3203 -0.9473 5.5315 39.1034)">
			<stop  offset="0" style="stop-color:#DBD8E4"/>
			<stop  offset="1" style="stop-color:#DBD8E4;stop-opacity:0"/>
		</linearGradient>
		<path class="st73" d="M30.7,11.9c0.2,0.4,0.3,1.6-0.5,2.5"/>
	</g>
	<g>
		
			<linearGradient id="SVGID_73_" gradientUnits="userSpaceOnUse" x1="30.4014" y1="14.564" x2="30.6928" y2="15.243" gradientTransform="matrix(0.9473 -0.3203 -0.3203 -0.9473 5.5315 39.1034)">
			<stop  offset="0" style="stop-color:#DBD8E4;stop-opacity:0.5"/>
			<stop  offset="1" style="stop-color:#DBD8E4;stop-opacity:0"/>
		</linearGradient>
		<path class="st74" d="M29,15.2c0.3-0.1,1.1-0.5,1.5-1.1"/>
	</g>
	<g>
		
			<linearGradient id="SVGID_74_" gradientUnits="userSpaceOnUse" x1="30.8964" y1="10.9246" x2="27.3797" y2="14.679" gradientTransform="matrix(0.9473 -0.3203 -0.3203 -0.9473 5.5315 39.1034)">
			<stop  offset="0" style="stop-color:#6CC995"/>
			<stop  offset="1" style="stop-color:#6CC995;stop-opacity:0"/>
		</linearGradient>
		<path class="st75" d="M27.1,16.6c1-0.1,3.1,0.4,3.9,2.8"/>
	</g>
	<g>
		
			<radialGradient id="SVGID_75_" cx="-493.0475" cy="384.6913" r="0.5552" gradientTransform="matrix(1.8788 -4.9332 -4.872 -1.8556 2825.8152 -1698.1488)" gradientUnits="userSpaceOnUse">
			<stop  offset="0" style="stop-color:#6CC995"/>
			<stop  offset="1" style="stop-color:#6CC995;stop-opacity:0"/>
		</radialGradient>
		<path class="st76" d="M23.9,18.7c0.4,0.7,1.6,1.9,3.6,1.7"/>
	</g>
	<g>
		
			<linearGradient id="SVGID_76_" gradientUnits="userSpaceOnUse" x1="23.5742" y1="15.5359" x2="29.2414" y2="11.3341" gradientTransform="matrix(0.9473 -0.3203 -0.3203 -0.9473 5.5315 39.1034)">
			<stop  offset="0" style="stop-color:#269C64"/>
			<stop  offset="1" style="stop-color:#45C68E"/>
		</linearGradient>
		<path class="st77" d="M22.6,15.6c0.2-0.1,0.5,0,0.5,0.3l0.4,1.3c0,0.1,0.1,0.2,0.3,0.2l5.2,1c0.2,0,0.4,0.3,0.3,0.5
			c0,0.2-0.3,0.4-0.5,0.3l-5.2-1c-0.4-0.1-0.7-0.4-0.9-0.8l-0.4-1.3C22.2,16,22.4,15.7,22.6,15.6z"/>
	</g>
	
		<linearGradient id="SVGID_77_" gradientUnits="userSpaceOnUse" x1="29.5537" y1="12.1639" x2="28.7369" y2="12.6086" gradientTransform="matrix(0.9473 -0.3203 -0.3203 -0.9473 5.5315 39.1034)">
		<stop  offset="0" style="stop-color:#32C37E"/>
		<stop  offset="1" style="stop-color:#32C37E;stop-opacity:0"/>
	</linearGradient>
	<path class="st78" d="M22.6,15.6c0.2-0.1,0.5,0,0.5,0.3l0.4,1.3c0,0.1,0.1,0.2,0.3,0.2l5.2,1c0.2,0,0.4,0.3,0.3,0.5
		c0,0.2-0.3,0.4-0.5,0.3l-5.2-1c-0.4-0.1-0.7-0.4-0.9-0.8l-0.4-1.3C22.2,16,22.4,15.7,22.6,15.6z"/>
	
		<radialGradient id="SVGID_78_" cx="-231.858" cy="630.1321" r="0.3771" gradientTransform="matrix(-0.1336 0.6502 5.8212 1.1962 -3673.207 -585.2882)" gradientUnits="userSpaceOnUse">
		<stop  offset="0" style="stop-color:#23A965"/>
		<stop  offset="1" style="stop-color:#23A965;stop-opacity:0"/>
	</radialGradient>
	<path class="st79" d="M22.6,15.6c0.2-0.1,0.5,0,0.5,0.3l0.4,1.3c0,0.1,0.1,0.2,0.3,0.2l5.2,1c0.2,0,0.4,0.3,0.3,0.5
		c0,0.2-0.3,0.4-0.5,0.3l-5.2-1c-0.4-0.1-0.7-0.4-0.9-0.8l-0.4-1.3C22.2,16,22.4,15.7,22.6,15.6z"/>
	
		<radialGradient id="SVGID_79_" cx="-1246.7549" cy="1157.4951" r="0.3771" gradientTransform="matrix(-0.6465 0.1856 0.1967 0.6851 -1004.5567 -542.8958)" gradientUnits="userSpaceOnUse">
		<stop  offset="0" style="stop-color:#65D69C"/>
		<stop  offset="1" style="stop-color:#65D69C;stop-opacity:0"/>
	</radialGradient>
	<path class="st80" d="M22.6,15.6c0.2-0.1,0.5,0,0.5,0.3l0.4,1.3c0,0.1,0.1,0.2,0.3,0.2l5.2,1c0.2,0,0.4,0.3,0.3,0.5
		c0,0.2-0.3,0.4-0.5,0.3l-5.2-1c-0.4-0.1-0.7-0.4-0.9-0.8l-0.4-1.3C22.2,16,22.4,15.7,22.6,15.6z"/>
	<g>
		
			<radialGradient id="SVGID_80_" cx="-442.3832" cy="242.8894" r="0.4685" gradientTransform="matrix(1.8516 -2.5455 -2.0184 -1.4682 1332.5681 -751.7412)" gradientUnits="userSpaceOnUse">
			<stop  offset="0" style="stop-color:#62B78C"/>
			<stop  offset="1" style="stop-color:#62B78C;stop-opacity:0"/>
		</radialGradient>
		<path class="st81" d="M22.8,16l0.4,1.3c0.1,0.3,0.3,0.5,0.6,0.5l5.2,0.9"/>
		
			<linearGradient id="SVGID_81_" gradientUnits="userSpaceOnUse" x1="29.1851" y1="12.5003" x2="24.2579" y2="15.2134" gradientTransform="matrix(0.9473 -0.3203 -0.3203 -0.9473 5.5315 39.1034)">
			<stop  offset="0" style="stop-color:#69D79E"/>
			<stop  offset="1" style="stop-color:#69D79E;stop-opacity:0"/>
		</linearGradient>
		<path class="st82" d="M22.8,16l0.4,1.3c0.1,0.3,0.3,0.5,0.6,0.5l5.2,0.9"/>
		
			<linearGradient id="SVGID_82_" gradientUnits="userSpaceOnUse" x1="27.4131" y1="15.577" x2="25.804" y2="13.3958" gradientTransform="matrix(0.9473 -0.3203 -0.3203 -0.9473 5.5315 39.1034)">
			<stop  offset="0" style="stop-color:#69D79E"/>
			<stop  offset="1" style="stop-color:#69D79E;stop-opacity:0"/>
		</linearGradient>
		<path class="st83" d="M22.8,16l0.4,1.3c0.1,0.3,0.3,0.5,0.6,0.5l5.2,0.9"/>
	</g>
	<g>
		
			<linearGradient id="SVGID_83_" gradientUnits="userSpaceOnUse" x1="22.0543" y1="15.4058" x2="23.776" y2="18.4423" gradientTransform="matrix(0.9473 -0.3203 -0.3203 -0.9473 5.5315 39.1034)">
			<stop  offset="0" style="stop-color:#DCD2EA"/>
			<stop  offset="1" style="stop-color:#DCD2EA;stop-opacity:0"/>
		</linearGradient>
		<path class="st84" d="M21.8,17.4c-0.2-0.6-0.5-2.2,0.3-3.3"/>
	</g>
	<g>
		
			<linearGradient id="SVGID_84_" gradientUnits="userSpaceOnUse" x1="26.3627" y1="19.4569" x2="24.1084" y2="18.6686" gradientTransform="matrix(0.9473 -0.3203 -0.3203 -0.9473 5.5315 39.1034)">
			<stop  offset="0" style="stop-color:#DCD2EA"/>
			<stop  offset="1" style="stop-color:#DCD2EA;stop-opacity:0"/>
		</linearGradient>
		<path class="st85" d="M24.2,12.4c-0.9,0.3-1.8,1-2.2,1.8"/>
	</g>
	<g>
		
			<linearGradient id="SVGID_85_" gradientUnits="userSpaceOnUse" x1="27.1606" y1="20.9558" x2="26.368" y2="19.9737" gradientTransform="matrix(0.9473 -0.3203 -0.3203 -0.9473 5.5315 39.1034)">
			<stop  offset="0" style="stop-color:#E2D9F0;stop-opacity:0.6"/>
			<stop  offset="1" style="stop-color:#DCD2EA;stop-opacity:0"/>
		</linearGradient>
		<path class="st86" d="M25.2,11.1c-0.4,0-1.2,0.1-1.9,0.5"/>
	</g>
	<g>
		
			<linearGradient id="SVGID_86_" gradientUnits="userSpaceOnUse" x1="22.6894" y1="19.4106" x2="24.6719" y2="19.71" gradientTransform="matrix(0.9473 -0.3203 -0.3203 -0.9473 5.5315 39.1034)">
			<stop  offset="0" style="stop-color:#E2D9F0;stop-opacity:0.6"/>
			<stop  offset="1" style="stop-color:#DCD2EA;stop-opacity:0"/>
		</linearGradient>
		<path class="st87" d="M21.2,13.7c0.1-0.3,0.5-1,1.1-1.4"/>
	</g>
</g>
<g id="图层_4">
	
		<radialGradient id="SVGID_87_" cx="-490.8067" cy="537.3937" r="0.2842" gradientTransform="matrix(-21.3694 4.9524 7.3122 31.5517 -14387.2393 -14522.8564)" gradientUnits="userSpaceOnUse">
		<stop  offset="0" style="stop-color:#86BC09"/>
		<stop  offset="1" style="stop-color:#79B024"/>
	</radialGradient>
	<path class="st88" d="M29,0.9c-2.8-0.4-4.2,1.8-4.5,2.7l0.5,0.1c0.3-0.8,0.9-1.4,1.5-1.8l0,0c0.2-0.1,0.3-0.2,0.4,0.1l0.8,3
		l0.5-0.1l-0.8-3c-0.1-0.2,0-0.3,0.2-0.3c0.3-0.1,0.5-0.1,0.8-0.1c0.2,0,0.2,0.1,0.2,0.2c0.1,1.3,0.5,1.9,0.8,2.2
		c0.4,0.3,0.8,0.5,1.5,0.5C31,4.2,31,4.1,31,4c0,0-0.2-0.8-0.4-1.7C30.6,2.3,30.4,1.1,29,0.9z"/>
	<g>
		
			<linearGradient id="SVGID_88_" gradientUnits="userSpaceOnUse" x1="27.4586" y1="33.7078" x2="24.4611" y2="29.8608" gradientTransform="matrix(0.9515 0.3076 0.3076 -0.9515 -7.9509 24.3294)">
			<stop  offset="0" style="stop-color:#A7D050;stop-opacity:0"/>
			<stop  offset="0.526" style="stop-color:#A7D050;stop-opacity:0.75"/>
		</linearGradient>
		<path class="st89" d="M24.7,3.8c0,0,0.9-2.8,3.9-2.7"/>
	</g>
	<g>
		
			<linearGradient id="SVGID_89_" gradientUnits="userSpaceOnUse" x1="27.089" y1="3.7848" x2="27.8719" y2="2.588" gradientTransform="matrix(0.9515 0.3076 -0.3076 0.9515 2.5082 -8.0219)">
			<stop  offset="0" style="stop-color:#A7D050;stop-opacity:0"/>
			<stop  offset="0.276" style="stop-color:#A7D050;stop-opacity:0.6"/>
		</linearGradient>
		<path class="st90" d="M28.1,5.2C28.1,5.2,28.2,5.2,28.1,5.2c0.1,0,0.1,0,0.1,0L28.1,5.2z M27.3,1.7C27.3,1.7,27.3,1.6,27.3,1.7
			c-0.1,0-0.1,0-0.1,0L27.3,1.7z M28.2,5.1l-0.9-3.4l-0.1,0l0.9,3.4L28.2,5.1z"/>
	</g>
	<g>
		
			<radialGradient id="SVGID_90_" cx="-463.5654" cy="561.9507" r="0.2842" gradientTransform="matrix(-7.1385 6.7939 10.0311 10.5399 -8914.0557 -2771.7683)" gradientUnits="userSpaceOnUse">
			<stop  offset="0.4918" style="stop-color:#B8FF2C"/>
			<stop  offset="1" style="stop-color:#A7DC3E;stop-opacity:0"/>
		</radialGradient>
		<path class="st91" d="M27.5,1c0.5-0.1,1-0.1,1.6-0.1c0.7,0.1,1.1,0.5,1.3,0.8c0.1,0.2,0.2,0.3,0.2,0.4c0,0.1,0,0.1,0,0.1
			c0,0,0,0,0,0c0,0,0,0,0,0l0,0l0,0l0,0c0.1,0.5,0.2,0.9,0.3,1.2c0,0.2,0.1,0.3,0.1,0.4c0,0,0,0.1,0,0.1l0,0l0,0c0,0,0,0.1,0,0.1
			c0,0,0,0-0.1,0c-0.4,0-0.6,0-0.9-0.1c-0.2-0.1-0.4-0.2-0.6-0.4c-0.3-0.2-0.7-0.8-0.8-2.1c0,0,0-0.1,0-0.1c0,0-0.1-0.1-0.2-0.1
			c-0.1,0-0.1,0-0.2,0c-0.2,0-0.4,0-0.6,0.1l0,0c0,0,0,0,0,0L27.5,1z"/>
	</g>
	
		<radialGradient id="SVGID_91_" cx="-485.0223" cy="592.0421" r="0.2842" gradientTransform="matrix(-8.0753 4.183 4.183 8.0753 -6368.3374 -2747.071)" gradientUnits="userSpaceOnUse">
		<stop  offset="0" style="stop-color:#FF7495"/>
		<stop  offset="0.5052" style="stop-color:#FF1D61"/>
		<stop  offset="1" style="stop-color:#CF1D75"/>
	</radialGradient>
	<path class="st92" d="M23.7,7.1c1,0.3,2-0.2,2.3-1.2c0.3-1-0.2-2-1.2-2.3c-1-0.3-2,0.2-2.3,1.2C22.2,5.8,22.7,6.8,23.7,7.1z"/>
	
		<radialGradient id="SVGID_92_" cx="-420.309" cy="507.6659" r="0.2842" gradientTransform="matrix(6.6365 8.5854 8.5854 -6.6365 -1546.5175 6981.6118)" gradientUnits="userSpaceOnUse">
		<stop  offset="0" style="stop-color:#902429"/>
		<stop  offset="1" style="stop-color:#D11146;stop-opacity:0"/>
	</radialGradient>
	<path class="st93" d="M23.7,7.1c1,0.3,2-0.2,2.3-1.2c0.3-1-0.2-2-1.2-2.3c-1-0.3-2,0.2-2.3,1.2C22.2,5.8,22.7,6.8,23.7,7.1z"/>
	
		<radialGradient id="SVGID_93_" cx="-484.1902" cy="591.2012" r="0.2842" gradientTransform="matrix(-8.0753 4.183 4.183 8.0753 -6354.0361 -2742.4475)" gradientUnits="userSpaceOnUse">
		<stop  offset="0" style="stop-color:#FF7495"/>
		<stop  offset="0.5052" style="stop-color:#FF1D61"/>
		<stop  offset="1" style="stop-color:#CF1D75"/>
	</radialGradient>
	<path class="st94" d="M27.7,8.4c1,0.3,2-0.2,2.3-1.2c0.3-1-0.2-2-1.2-2.3c-1-0.3-2,0.2-2.3,1.2C26.2,7.1,26.8,8.1,27.7,8.4z"/>
	
		<radialGradient id="SVGID_94_" cx="-421.1272" cy="507.106" r="0.2842" gradientTransform="matrix(6.6365 8.5854 8.5854 -6.6365 -1532.2162 6986.2354)" gradientUnits="userSpaceOnUse">
		<stop  offset="0" style="stop-color:#902429"/>
		<stop  offset="1" style="stop-color:#D11146;stop-opacity:0"/>
	</radialGradient>
	<path class="st95" d="M27.7,8.4c1,0.3,2-0.2,2.3-1.2c0.3-1-0.2-2-1.2-2.3c-1-0.3-2,0.2-2.3,1.2C26.2,7.1,26.8,8.1,27.7,8.4z"/>
	<g>
		
			<linearGradient id="SVGID_95_" gradientUnits="userSpaceOnUse" x1="29.9882" y1="32.8527" x2="28.8985" y2="31.6862" gradientTransform="matrix(0.9515 0.3076 0.3076 -0.9515 -7.9509 24.3294)">
			<stop  offset="0" style="stop-color:#BDF45B"/>
			<stop  offset="0.8333" style="stop-color:#BDF45B;stop-opacity:0"/>
		</linearGradient>
		<path class="st96" d="M30.2,1.8c-0.3-0.5-0.6-0.5-0.8-0.4c-0.1,0.1-0.6,0.5-0.1,1.5c0.5,1,1.4,1.1,1.4,1.1S30.5,2.3,30.2,1.8z"/>
	</g>
</g>
<g id="图层_3">
	
		<linearGradient id="SVGID_96_" gradientUnits="userSpaceOnUse" x1="12.7798" y1="28.4689" x2="15.8065" y2="26.9695" gradientTransform="matrix(0.886 -0.4636 -0.4636 -0.886 13.8081 33.4562)">
		<stop  offset="0" style="stop-color:#77B725"/>
		<stop  offset="1" style="stop-color:#A3DA32"/>
	</linearGradient>
	<path class="st97" d="M13.3,1.6l-1.4,0.7c0.4,0.7,1.3,1,2,0.6l1.4-0.7C14.9,1.5,14,1.2,13.3,1.6z"/>
	<g>
		
			<linearGradient id="SVGID_97_" gradientUnits="userSpaceOnUse" x1="12.7798" y1="28.4689" x2="15.8065" y2="26.9695" gradientTransform="matrix(0.886 -0.4636 -0.4636 -0.886 13.8081 33.4562)">
			<stop  offset="0" style="stop-color:#8FCD20"/>
			<stop  offset="1" style="stop-color:#AEE137"/>
		</linearGradient>
		<path class="st98" d="M13.9,2.8c-0.6,0.3-1.4,0.1-1.8-0.5l1.2-0.6c0.6-0.3,1.4-0.1,1.8,0.5L13.9,2.8z"/>
	</g>
	<g>
		
			<linearGradient id="SVGID_98_" gradientUnits="userSpaceOnUse" x1="13.5553" y1="28.5082" x2="15.8613" y2="27.3684" gradientTransform="matrix(0.886 -0.4636 -0.4636 -0.886 13.8081 33.4562)">
			<stop  offset="0.2604" style="stop-color:#CDFF7A;stop-opacity:0"/>
			<stop  offset="0.7396" style="stop-color:#CDFF7A;stop-opacity:0.8"/>
			<stop  offset="1" style="stop-color:#CDFF7A;stop-opacity:0"/>
		</linearGradient>
		<path class="st99" d="M12.6,2.1l0.7-0.4c0.6-0.3,1.4-0.1,1.8,0.5C14.2,1.6,14,1.7,12.6,2.1z"/>
	</g>
	
		<radialGradient id="SVGID_99_" cx="-480.3315" cy="493.1315" r="0.2533" gradientTransform="matrix(10.7435 -26.1112 -26.1112 -10.7435 18051.7891 -7236.2056)" gradientUnits="userSpaceOnUse">
		<stop  offset="0" style="stop-color:#992D56"/>
		<stop  offset="0.5279" style="stop-color:#FB3E4F"/>
		<stop  offset="1" style="stop-color:#FA3D3C"/>
	</radialGradient>
	<path class="st100" d="M15.7,1.9c-0.2,0.3-0.6,0.5-0.9,0.5c-1.2,0.1-2,1.1-1.9,2.3c0.1,1.1,0.6,2.1,1.4,2.8
		c0.9,0.8,2.3,0.8,3.1-0.1c0.2-0.2,0.5-0.4,0.8-0.4c1.2-0.2,2-1.3,1.8-2.5c-0.1-1.1-0.6-2.1-1.4-2.8C17.7,0.9,16.4,1,15.7,1.9z"/>
	
		<radialGradient id="SVGID_100_" cx="-477.0515" cy="542.7106" r="0.2533" gradientTransform="matrix(-2.3882 21.3308 25.6419 2.8708 -15038.0283 8621.0215)" gradientUnits="userSpaceOnUse">
		<stop  offset="0" style="stop-color:#FF787A;stop-opacity:0.8"/>
		<stop  offset="0.3863" style="stop-color:#FF787A;stop-opacity:0"/>
	</radialGradient>
	<path class="st101" d="M15.7,1.9c-0.2,0.3-0.6,0.5-0.9,0.5c-1.2,0.1-2,1.1-1.9,2.3c0.1,1.1,0.6,2.1,1.4,2.8
		c0.9,0.8,2.3,0.8,3.1-0.1c0.2-0.2,0.5-0.4,0.8-0.4c1.2-0.2,2-1.3,1.8-2.5c-0.1-1.1-0.6-2.1-1.4-2.8C17.7,0.9,16.4,1,15.7,1.9z"/>
	
		<radialGradient id="SVGID_101_" cx="-454.761" cy="524.7544" r="0.2533" gradientTransform="matrix(18.7214 13.1828 15.8472 -22.5051 213.0437 17808.8457)" gradientUnits="userSpaceOnUse">
		<stop  offset="0" style="stop-color:#F24961"/>
		<stop  offset="0.3671" style="stop-color:#F24961;stop-opacity:0"/>
	</radialGradient>
	<path class="st102" d="M15.7,1.9c-0.2,0.3-0.6,0.5-0.9,0.5c-1.2,0.1-2,1.1-1.9,2.3c0.1,1.1,0.6,2.1,1.4,2.8
		c0.9,0.8,2.3,0.8,3.1-0.1c0.2-0.2,0.5-0.4,0.8-0.4c1.2-0.2,2-1.3,1.8-2.5c-0.1-1.1-0.6-2.1-1.4-2.8C17.7,0.9,16.4,1,15.7,1.9z"/>
	
		<linearGradient id="SVGID_102_" gradientUnits="userSpaceOnUse" x1="15.761" y1="27.2684" x2="15.761" y2="21.373" gradientTransform="matrix(0.886 -0.4636 -0.4636 -0.886 13.8081 33.4562)">
		<stop  offset="0.5833" style="stop-color:#CB2568;stop-opacity:0"/>
		<stop  offset="1" style="stop-color:#B13591"/>
	</linearGradient>
	<path class="st103" d="M15.7,1.9c-0.2,0.3-0.6,0.5-0.9,0.5c-1.2,0.1-2,1.1-1.9,2.3c0.1,1.1,0.6,2.1,1.4,2.8
		c0.9,0.8,2.3,0.8,3.1-0.1c0.2-0.2,0.5-0.4,0.8-0.4c1.2-0.2,2-1.3,1.8-2.5c-0.1-1.1-0.6-2.1-1.4-2.8C17.7,0.9,16.4,1,15.7,1.9z"/>
	
		<radialGradient id="SVGID_103_" cx="-457.2954" cy="510.1199" r="0.2533" gradientTransform="matrix(25.5028 -0.5295 -0.6365 -30.657 11999.3604 15400.8887)" gradientUnits="userSpaceOnUse">
		<stop  offset="0" style="stop-color:#88424B"/>
		<stop  offset="0.3896" style="stop-color:#D02953;stop-opacity:0"/>
	</radialGradient>
	<path class="st104" d="M15.7,1.9c-0.2,0.3-0.6,0.5-0.9,0.5c-1.2,0.1-2,1.1-1.9,2.3c0.1,1.1,0.6,2.1,1.4,2.8
		c0.9,0.8,2.3,0.8,3.1-0.1c0.2-0.2,0.5-0.4,0.8-0.4c1.2-0.2,2-1.3,1.8-2.5c-0.1-1.1-0.6-2.1-1.4-2.8C17.7,0.9,16.4,1,15.7,1.9z"/>
</g>
<g id="图层_6">
	<g>
		<path class="st105" d="M3.5,17.3c-0.2-0.1-0.2-0.3-0.1-0.4l0-0.1C3.8,16,3.4,15,2.6,14.6c-0.3-0.1-0.5-0.4-0.6-0.7
			c-0.1-0.3-0.1-0.6,0.1-0.9c0.1-0.3,0.4-0.5,0.7-0.6c0.3-0.1,0.6-0.1,0.9,0.1l2,1c0.3,0.1,0.6,0,0.7-0.3s0-0.6-0.3-0.7l-1-0.5
			c-0.2-0.1-0.3-0.2-0.3-0.4l-0.1-0.3c-0.1-0.2,0-0.3,0.2-0.4s0.3,0,0.4,0.2l0.1,0.3c0,0,0,0,0,0l1,0.5C6.7,12,6.9,12.3,7,12.6
			c0.1,0.3,0.1,0.6-0.1,0.9c-0.1,0.3-0.4,0.5-0.7,0.6C6,14.2,5.7,14.1,5.4,14l-2-1c-0.1-0.1-0.3-0.1-0.4,0c-0.1,0-0.3,0.1-0.3,0.3
			c-0.1,0.1-0.1,0.3,0,0.4s0.1,0.3,0.3,0.3c0.5,0.3,1,0.7,1.2,1.3c0.2,0.6,0.2,1.2-0.1,1.8l0,0.1c0,0.1-0.1,0.1-0.2,0.2
			C3.6,17.3,3.6,17.3,3.5,17.3z"/>
		
			<linearGradient id="SVGID_104_" gradientUnits="userSpaceOnUse" x1="67.7996" y1="9.2957" x2="66.3303" y2="9.7544" gradientTransform="matrix(-0.9476 0.3195 -0.3195 -0.9476 69.2344 2.8538)">
			<stop  offset="0" style="stop-color:#955161"/>
			<stop  offset="1" style="stop-color:#955161;stop-opacity:0"/>
		</linearGradient>
		<path class="st106" d="M3.5,17.3c-0.2-0.1-0.2-0.3-0.1-0.4l0-0.1C3.8,16,3.4,15,2.6,14.6c-0.3-0.1-0.5-0.4-0.6-0.7
			c-0.1-0.3-0.1-0.6,0.1-0.9c0.1-0.3,0.4-0.5,0.7-0.6c0.3-0.1,0.6-0.1,0.9,0.1l2,1c0.3,0.1,0.6,0,0.7-0.3s0-0.6-0.3-0.7l-1-0.5
			c-0.2-0.1-0.3-0.2-0.3-0.4l-0.1-0.3c-0.1-0.2,0-0.3,0.2-0.4s0.3,0,0.4,0.2l0.1,0.3c0,0,0,0,0,0l1,0.5C6.7,12,6.9,12.3,7,12.6
			c0.1,0.3,0.1,0.6-0.1,0.9c-0.1,0.3-0.4,0.5-0.7,0.6C6,14.2,5.7,14.1,5.4,14l-2-1c-0.1-0.1-0.3-0.1-0.4,0c-0.1,0-0.3,0.1-0.3,0.3
			c-0.1,0.1-0.1,0.3,0,0.4s0.1,0.3,0.3,0.3c0.5,0.3,1,0.7,1.2,1.3c0.2,0.6,0.2,1.2-0.1,1.8l0,0.1c0,0.1-0.1,0.1-0.2,0.2
			C3.6,17.3,3.6,17.3,3.5,17.3z"/>
		
			<linearGradient id="SVGID_105_" gradientUnits="userSpaceOnUse" x1="64.029" y1="6.8999" x2="65.2011" y2="12.1746" gradientTransform="matrix(-0.9476 0.3195 -0.3195 -0.9476 69.2344 2.8538)">
			<stop  offset="0" style="stop-color:#924367"/>
			<stop  offset="1" style="stop-color:#924367;stop-opacity:0"/>
		</linearGradient>
		<path class="st107" d="M3.5,17.3c-0.2-0.1-0.2-0.3-0.1-0.4l0-0.1C3.8,16,3.4,15,2.6,14.6c-0.3-0.1-0.5-0.4-0.6-0.7
			c-0.1-0.3-0.1-0.6,0.1-0.9c0.1-0.3,0.4-0.5,0.7-0.6c0.3-0.1,0.6-0.1,0.9,0.1l2,1c0.3,0.1,0.6,0,0.7-0.3s0-0.6-0.3-0.7l-1-0.5
			c-0.2-0.1-0.3-0.2-0.3-0.4l-0.1-0.3c-0.1-0.2,0-0.3,0.2-0.4s0.3,0,0.4,0.2l0.1,0.3c0,0,0,0,0,0l1,0.5C6.7,12,6.9,12.3,7,12.6
			c0.1,0.3,0.1,0.6-0.1,0.9c-0.1,0.3-0.4,0.5-0.7,0.6C6,14.2,5.7,14.1,5.4,14l-2-1c-0.1-0.1-0.3-0.1-0.4,0c-0.1,0-0.3,0.1-0.3,0.3
			c-0.1,0.1-0.1,0.3,0,0.4s0.1,0.3,0.3,0.3c0.5,0.3,1,0.7,1.2,1.3c0.2,0.6,0.2,1.2-0.1,1.8l0,0.1c0,0.1-0.1,0.1-0.2,0.2
			C3.6,17.3,3.6,17.3,3.5,17.3z"/>
		
			<radialGradient id="SVGID_106_" cx="-520.842" cy="434.0015" r="0.2039" gradientTransform="matrix(3.6945 -17.603 2.4655 0.5175 858.2343 -9375.9502)" gradientUnits="userSpaceOnUse">
			<stop  offset="0" style="stop-color:#8B3968"/>
			<stop  offset="1" style="stop-color:#8B3968;stop-opacity:0"/>
		</radialGradient>
		<path class="st108" d="M3.5,17.3c-0.2-0.1-0.2-0.3-0.1-0.4l0-0.1C3.8,16,3.4,15,2.6,14.6c-0.3-0.1-0.5-0.4-0.6-0.7
			c-0.1-0.3-0.1-0.6,0.1-0.9c0.1-0.3,0.4-0.5,0.7-0.6c0.3-0.1,0.6-0.1,0.9,0.1l2,1c0.3,0.1,0.6,0,0.7-0.3s0-0.6-0.3-0.7l-1-0.5
			c-0.2-0.1-0.3-0.2-0.3-0.4l-0.1-0.3c-0.1-0.2,0-0.3,0.2-0.4s0.3,0,0.4,0.2l0.1,0.3c0,0,0,0,0,0l1,0.5C6.7,12,6.9,12.3,7,12.6
			c0.1,0.3,0.1,0.6-0.1,0.9c-0.1,0.3-0.4,0.5-0.7,0.6C6,14.2,5.7,14.1,5.4,14l-2-1c-0.1-0.1-0.3-0.1-0.4,0c-0.1,0-0.3,0.1-0.3,0.3
			c-0.1,0.1-0.1,0.3,0,0.4s0.1,0.3,0.3,0.3c0.5,0.3,1,0.7,1.2,1.3c0.2,0.6,0.2,1.2-0.1,1.8l0,0.1c0,0.1-0.1,0.1-0.2,0.2
			C3.6,17.3,3.6,17.3,3.5,17.3z"/>
		
			<radialGradient id="SVGID_107_" cx="-466.0193" cy="1102.6599" r="0.2039" gradientTransform="matrix(1.9609 1.2186 -0.6401 1.0301 1622.9801 -551.1166)" gradientUnits="userSpaceOnUse">
			<stop  offset="0" style="stop-color:#B47E7F"/>
			<stop  offset="1" style="stop-color:#B47E7F;stop-opacity:0"/>
		</radialGradient>
		<path class="st109" d="M3.5,17.3c-0.2-0.1-0.2-0.3-0.1-0.4l0-0.1C3.8,16,3.4,15,2.6,14.6c-0.3-0.1-0.5-0.4-0.6-0.7
			c-0.1-0.3-0.1-0.6,0.1-0.9c0.1-0.3,0.4-0.5,0.7-0.6c0.3-0.1,0.6-0.1,0.9,0.1l2,1c0.3,0.1,0.6,0,0.7-0.3s0-0.6-0.3-0.7l-1-0.5
			c-0.2-0.1-0.3-0.2-0.3-0.4l-0.1-0.3c-0.1-0.2,0-0.3,0.2-0.4s0.3,0,0.4,0.2l0.1,0.3c0,0,0,0,0,0l1,0.5C6.7,12,6.9,12.3,7,12.6
			c0.1,0.3,0.1,0.6-0.1,0.9c-0.1,0.3-0.4,0.5-0.7,0.6C6,14.2,5.7,14.1,5.4,14l-2-1c-0.1-0.1-0.3-0.1-0.4,0c-0.1,0-0.3,0.1-0.3,0.3
			c-0.1,0.1-0.1,0.3,0,0.4s0.1,0.3,0.3,0.3c0.5,0.3,1,0.7,1.2,1.3c0.2,0.6,0.2,1.2-0.1,1.8l0,0.1c0,0.1-0.1,0.1-0.2,0.2
			C3.6,17.3,3.6,17.3,3.5,17.3z"/>
		
			<radialGradient id="SVGID_108_" cx="-455.4696" cy="689.9673" r="0.2039" gradientTransform="matrix(2.7342 1.9472 -2.4405 3.4268 2933.8499 -1466.4407)" gradientUnits="userSpaceOnUse">
			<stop  offset="0" style="stop-color:#F49CA0"/>
			<stop  offset="1" style="stop-color:#F49CA0;stop-opacity:0"/>
		</radialGradient>
		<path class="st110" d="M3.5,17.3c-0.2-0.1-0.2-0.3-0.1-0.4l0-0.1C3.8,16,3.4,15,2.6,14.6c-0.3-0.1-0.5-0.4-0.6-0.7
			c-0.1-0.3-0.1-0.6,0.1-0.9c0.1-0.3,0.4-0.5,0.7-0.6c0.3-0.1,0.6-0.1,0.9,0.1l2,1c0.3,0.1,0.6,0,0.7-0.3s0-0.6-0.3-0.7l-1-0.5
			c-0.2-0.1-0.3-0.2-0.3-0.4l-0.1-0.3c-0.1-0.2,0-0.3,0.2-0.4s0.3,0,0.4,0.2l0.1,0.3c0,0,0,0,0,0l1,0.5C6.7,12,6.9,12.3,7,12.6
			c0.1,0.3,0.1,0.6-0.1,0.9c-0.1,0.3-0.4,0.5-0.7,0.6C6,14.2,5.7,14.1,5.4,14l-2-1c-0.1-0.1-0.3-0.1-0.4,0c-0.1,0-0.3,0.1-0.3,0.3
			c-0.1,0.1-0.1,0.3,0,0.4s0.1,0.3,0.3,0.3c0.5,0.3,1,0.7,1.2,1.3c0.2,0.6,0.2,1.2-0.1,1.8l0,0.1c0,0.1-0.1,0.1-0.2,0.2
			C3.6,17.3,3.6,17.3,3.5,17.3z"/>
	</g>
	
		<radialGradient id="SVGID_109_" cx="-484.2683" cy="591.2102" r="0.2039" gradientTransform="matrix(12.7308 6.4584 -4.4438 8.7595 8796.7227 -2038.8519)" gradientUnits="userSpaceOnUse">
		<stop  offset="0.8677" style="stop-color:#A8437A;stop-opacity:0"/>
		<stop  offset="1" style="stop-color:#A8437A"/>
	</radialGradient>
	<path class="st111" d="M3.4,13l2,1c0.3,0.1,0.6,0.2,0.9,0.1C6.6,14,6.8,13.7,7,13.5c0.1-0.3,0.2-0.6,0.1-0.9
		c-0.1-0.3-0.3-0.5-0.6-0.7l-1-0.5c0,0,0,0,0,0l-0.1-0.3c-0.1-0.2-0.2-0.2-0.4-0.2c-0.2,0.1-0.2,0.2-0.2,0.4l0.1,0.3
		C4.9,11.7,5,11.9,5.2,12l1,0.5c0.3,0.1,0.4,0.5,0.3,0.7s-0.5,0.4-0.7,0.3l-2-1c-0.3-0.1-0.6-0.2-0.9-0.1c-0.2,0.1-0.3,0.1-0.4,0.3
		L3,13C3.1,12.9,3.3,12.9,3.4,13z"/>
	<path class="st112" d="M4,16.8l-0.6-0.3c0,0.1,0,0.1-0.1,0.2L4,17C4,16.9,4,16.9,4,16.8z"/>
	<path class="st113" d="M3.6,16.1l0.6-0.2c0-0.1,0-0.1,0-0.2l-0.6,0.2C3.6,15.9,3.6,16,3.6,16.1z"/>
	<path class="st114" d="M3.4,15.3l0.5-0.3c0-0.1-0.1-0.1-0.1-0.2l-0.5,0.3C3.3,15.1,3.3,15.2,3.4,15.3z"/>
	<path class="st115" d="M3,14.1l-0.4,0.5c0,0,0,0,0,0c0.1,0,0.1,0.1,0.1,0.1l0.4-0.5C3.1,14.1,3.1,14.1,3,14.1z"/>
	<path class="st116" d="M2,13.8l0.6-0.2c0-0.1,0-0.1,0-0.2L2,13.6C2,13.7,2,13.7,2,13.8z"/>
	<path class="st116" d="M2.8,12.4C2.8,12.4,2.8,12.4,2.8,12.4L2.9,13c0,0,0,0,0,0c0.1,0,0.1,0,0.2,0l-0.2-0.6
		C2.9,12.4,2.8,12.4,2.8,12.4z"/>
	<path class="st117" d="M3.6,13.1l0.2,0.1l0.3-0.5l-0.2-0.1L3.6,13.1z"/>
	<path class="st117" d="M4.4,13.5l0.2,0.1l0.3-0.5L4.7,13L4.4,13.5z"/>
	<path class="st117" d="M5.2,13.9L5.4,14c0,0,0,0,0,0l0.3-0.5c0,0,0,0,0,0l-0.1-0.1L5.2,13.9z"/>
	<path class="st118" d="M6.3,14.1C6.4,14,6.4,14,6.5,14l-0.2-0.6c-0.1,0-0.1,0.1-0.2,0.1L6.3,14.1z"/>
	
		<linearGradient id="SVGID_110_" gradientUnits="userSpaceOnUse" x1="62.1589" y1="10.7948" x2="62.666" y2="10.8418" gradientTransform="matrix(-0.9476 0.3195 -0.3195 -0.9476 69.2344 2.8538)">
		<stop  offset="0.5" style="stop-color:#D88D91"/>
		<stop  offset="0.726" style="stop-color:#E19B9D;stop-opacity:0"/>
		<stop  offset="1" style="stop-color:#E19B9D"/>
		<stop  offset="1" style="stop-color:#E19B9D;stop-opacity:0"/>
	</linearGradient>
	<path class="st119" d="M6.9,12.3l-0.6,0.2c0,0.1,0.1,0.1,0.1,0.2L7,12.5C7,12.5,7,12.4,6.9,12.3z"/>
	
		<linearGradient id="SVGID_111_" gradientUnits="userSpaceOnUse" x1="62.7601" y1="11.8505" x2="63.1963" y2="11.3907" gradientTransform="matrix(-0.9476 0.3195 -0.3195 -0.9476 69.2344 2.8538)">
		<stop  offset="0.7451" style="stop-color:#E19B9D"/>
		<stop  offset="1" style="stop-color:#E19B9D;stop-opacity:0"/>
	</linearGradient>
	<path class="st120" d="M5.6,12.2l0.2,0.1l0.3-0.5l-0.2-0.1L5.6,12.2z"/>
	<g>
		
			<linearGradient id="SVGID_112_" gradientUnits="userSpaceOnUse" x1="63.8775" y1="12.1835" x2="63.3033" y2="12.2846" gradientTransform="matrix(-0.9476 0.3195 -0.3195 -0.9476 69.2344 2.8538)">
			<stop  offset="0" style="stop-color:#F1979E"/>
			<stop  offset="1" style="stop-color:#F1979E;stop-opacity:0"/>
		</linearGradient>
		<path class="st121" d="M5,11.3L5,11.4c0,0.1,0.1,0.2,0.2,0.2l0.2,0.1"/>
	</g>
	
		<radialGradient id="SVGID_113_" cx="-350.2625" cy="1693.9374" r="0.2039" gradientTransform="matrix(0.5647 0.4032 -0.3595 0.5034 811.7088 -700.4058)" gradientUnits="userSpaceOnUse">
		<stop  offset="5.586590e-03" style="stop-color:#433437"/>
		<stop  offset="1" style="stop-color:#3B2838"/>
	</radialGradient>
	<path class="st122" d="M5.1,11.1c0-0.1-0.1-0.1-0.1-0.1c-0.1,0-0.1,0.1-0.1,0.1c0,0.1,0.1,0.1,0.1,0.1C5.1,11.2,5.1,11.2,5.1,11.1z
		"/>
	
		<radialGradient id="SVGID_114_" cx="-686.0458" cy="3220.6509" r="0.2039" gradientTransform="matrix(0.282 0.1223 -0.1076 0.2481 544.9285 -704.0527)" gradientUnits="userSpaceOnUse">
		<stop  offset="0" style="stop-color:#5C5051"/>
		<stop  offset="1" style="stop-color:#5C5051;stop-opacity:0"/>
	</radialGradient>
	<path class="st123" d="M5.1,11.1c0-0.1-0.1-0.1-0.1-0.1c-0.1,0-0.1,0.1-0.1,0.1c0,0.1,0.1,0.1,0.1,0.1C5.1,11.2,5.1,11.2,5.1,11.1z
		"/>
	
		<linearGradient id="SVGID_115_" gradientUnits="userSpaceOnUse" x1="63.4534" y1="12.6671" x2="63.3833" y2="12.7117" gradientTransform="matrix(-0.9476 0.3195 -0.3195 -0.9476 69.2344 2.8538)">
		<stop  offset="0" style="stop-color:#5C5051;stop-opacity:0"/>
		<stop  offset="1" style="stop-color:#5C5051"/>
	</linearGradient>
	<path class="st124" d="M5.1,11.1c0-0.1-0.1-0.1-0.1-0.1c-0.1,0-0.1,0.1-0.1,0.1c0,0.1,0.1,0.1,0.1,0.1C5.1,11.2,5.1,11.2,5.1,11.1z
		"/>
	<g>
		
			<linearGradient id="SVGID_116_" gradientUnits="userSpaceOnUse" x1="66.0787" y1="8.8726" x2="67.007" y2="9.1987" gradientTransform="matrix(-0.9476 0.3195 -0.3195 -0.9476 69.2344 2.8538)">
			<stop  offset="0" style="stop-color:#BA8284"/>
			<stop  offset="1" style="stop-color:#BA8284;stop-opacity:0"/>
		</linearGradient>
		<path class="st125" d="M3.6,16.9c0.1-0.2,0.3-0.8,0.1-1.5c-0.2-0.7-0.9-1.1-1.2-1.2"/>
	</g>
	<g>
		
			<linearGradient id="SVGID_117_" gradientUnits="userSpaceOnUse" x1="66.9736" y1="11.7832" x2="66.3442" y2="11.326" gradientTransform="matrix(-0.9476 0.3195 -0.3195 -0.9476 69.2344 2.8538)">
			<stop  offset="0" style="stop-color:#F1979E"/>
			<stop  offset="1" style="stop-color:#F1979E;stop-opacity:0"/>
		</linearGradient>
		<path class="st126" d="M2.5,14.2C2.2,14,2,13.5,2.3,13c0.3-0.4,0.7-0.5,0.9-0.5"/>
	</g>
	<g>
		
			<linearGradient id="SVGID_118_" gradientUnits="userSpaceOnUse" x1="62.73" y1="10.3347" x2="63.4924" y2="10.9151" gradientTransform="matrix(-0.9476 0.3195 -0.3195 -0.9476 69.2344 2.8538)">
			<stop  offset="0" style="stop-color:#F1979E"/>
			<stop  offset="1" style="stop-color:#F1979E;stop-opacity:0"/>
		</linearGradient>
		<path class="st127" d="M5.5,13.6c0.3,0.2,0.9,0.1,1.1-0.4c0.2-0.5-0.2-0.8-0.3-0.9l-1-0.5"/>
	</g>
</g>
<g id="图层_2">
	
		<linearGradient id="SVGID_119_" gradientUnits="userSpaceOnUse" x1="20.4879" y1="20.3281" x2="23.7351" y2="20.1121" gradientTransform="matrix(0.9697 -0.2444 -0.2444 -0.9697 -13.3387 27.069)">
		<stop  offset="0" style="stop-color:#769817"/>
		<stop  offset="1" style="stop-color:#B1D53A"/>
	</linearGradient>
	<path class="st128" d="M2.8,1.5L1.6,2.3C2,3,2.9,3.1,3.6,2.7l1.2-0.9C4.3,1.2,3.4,1,2.8,1.5z"/>
	<g>
		
			<linearGradient id="SVGID_120_" gradientUnits="userSpaceOnUse" x1="20.4901" y1="20.3279" x2="23.7373" y2="20.112" gradientTransform="matrix(0.9697 -0.2444 -0.2444 -0.9697 -13.3387 27.069)">
			<stop  offset="0" style="stop-color:#7FA418"/>
			<stop  offset="1" style="stop-color:#B4D83C"/>
		</linearGradient>
		<path class="st129" d="M1.8,2.3l1.1-0.7c0.5-0.4,1.3-0.3,1.7,0.2L3.5,2.5C2.9,2.9,2.2,2.8,1.8,2.3z"/>
	</g>
	<g>
		
			<linearGradient id="SVGID_121_" gradientUnits="userSpaceOnUse" x1="21.4448" y1="20.8882" x2="23.7608" y2="20.3548" gradientTransform="matrix(0.9697 -0.2444 -0.2444 -0.9697 -13.3387 27.069)">
			<stop  offset="0" style="stop-color:#B8D85A;stop-opacity:0"/>
			<stop  offset="0.4948" style="stop-color:#B8D85A"/>
			<stop  offset="1" style="stop-color:#B8D85A;stop-opacity:0"/>
		</linearGradient>
		<path class="st130" d="M2.4,1.9l0.5-0.4c0.6-0.4,1.4-0.3,1.9,0.3C3.8,1.4,3.6,1.4,2.4,1.9z"/>
	</g>
	
		<radialGradient id="SVGID_122_" cx="-455.8958" cy="551.8324" r="0.3334" gradientTransform="matrix(4.8794 17.7197 13.2719 -3.6546 -5092.2183 10098.627)" gradientUnits="userSpaceOnUse">
		<stop  offset="0" style="stop-color:#ECF054"/>
		<stop  offset="0.5" style="stop-color:#C5D326"/>
		<stop  offset="1" style="stop-color:#A2AA1C"/>
	</radialGradient>
	<path class="st131" d="M7.4,2.3L7.4,2.3C6.7,1.4,5.6,1.2,4.8,1.8c-0.8,0.6-1,1.7-0.4,2.6l0.1,0.1c0.3,0.5,0.5,1,0.4,1.6
		C4.7,6.8,5,7.6,5.4,8.2c1,1.4,3,1.8,4.5,0.8s1.8-3,0.8-4.5c-0.4-0.6-1.1-1.1-1.8-1.3C8.2,3.1,7.7,2.8,7.4,2.3z"/>
	
		<radialGradient id="SVGID_123_" cx="-456.9314" cy="550.1506" r="0.3334" gradientTransform="matrix(5.1903 18.504 13.8594 -3.8875 -5246.0815 10597.1006)" gradientUnits="userSpaceOnUse">
		<stop  offset="0.5575" style="stop-color:#B2B136;stop-opacity:0"/>
		<stop  offset="0.7135" style="stop-color:#D88D77;stop-opacity:0.2"/>
		<stop  offset="1" style="stop-color:#D0778A"/>
	</radialGradient>
	<path class="st132" d="M7.4,2.3L7.4,2.3C6.7,1.4,5.6,1.2,4.8,1.8c-0.8,0.6-1,1.7-0.4,2.6l0.1,0.1c0.3,0.5,0.5,1,0.4,1.6
		C4.7,6.8,5,7.6,5.4,8.2c1,1.4,3,1.8,4.5,0.8s1.8-3,0.8-4.5c-0.4-0.6-1.1-1.1-1.8-1.3C8.2,3.1,7.7,2.8,7.4,2.3z"/>
	
		<radialGradient id="SVGID_124_" cx="-500.2409" cy="542.9023" r="0.3334" gradientTransform="matrix(-25.3804 8.3569 6.2593 19.0097 -16089.9102 -6134.043)" gradientUnits="userSpaceOnUse">
		<stop  offset="0" style="stop-color:#7B8532"/>
		<stop  offset="0.6513" style="stop-color:#C3CF23;stop-opacity:0"/>
	</radialGradient>
	<path class="st133" d="M7.4,2.3L7.4,2.3C6.7,1.4,5.6,1.2,4.8,1.8c-0.8,0.6-1,1.7-0.4,2.6l0.1,0.1c0.3,0.5,0.5,1,0.4,1.6
		C4.7,6.8,5,7.6,5.4,8.2c1,1.4,3,1.8,4.5,0.8s1.8-3,0.8-4.5c-0.4-0.6-1.1-1.1-1.8-1.3C8.2,3.1,7.7,2.8,7.4,2.3z"/>
	
		<radialGradient id="SVGID_125_" cx="-472.5807" cy="542.2344" r="0.3334" gradientTransform="matrix(-1.0853 32.0926 24.0371 0.8129 -13539.8252 14728.1396)" gradientUnits="userSpaceOnUse">
		<stop  offset="0" style="stop-color:#F5FC58"/>
		<stop  offset="0.3217" style="stop-color:#F5FC58;stop-opacity:0"/>
	</radialGradient>
	<path class="st134" d="M7.4,2.3L7.4,2.3C6.7,1.4,5.6,1.2,4.8,1.8c-0.8,0.6-1,1.7-0.4,2.6l0.1,0.1c0.3,0.5,0.5,1,0.4,1.6
		C4.7,6.8,5,7.6,5.4,8.2c1,1.4,3,1.8,4.5,0.8s1.8-3,0.8-4.5c-0.4-0.6-1.1-1.1-1.8-1.3C8.2,3.1,7.7,2.8,7.4,2.3z"/>
	
		<radialGradient id="SVGID_126_" cx="-475.6201" cy="548.7601" r="0.3334" gradientTransform="matrix(-6.4365 26.8701 20.1255 4.8209 -14096.8047 10138.8057)" gradientUnits="userSpaceOnUse">
		<stop  offset="0" style="stop-color:#F5FC58"/>
		<stop  offset="0.5199" style="stop-color:#F5FC58;stop-opacity:0"/>
	</radialGradient>
	<path class="st135" d="M7.4,2.3L7.4,2.3C6.7,1.4,5.6,1.2,4.8,1.8c-0.8,0.6-1,1.7-0.4,2.6l0.1,0.1c0.3,0.5,0.5,1,0.4,1.6
		C4.7,6.8,5,7.6,5.4,8.2c1,1.4,3,1.8,4.5,0.8s1.8-3,0.8-4.5c-0.4-0.6-1.1-1.1-1.8-1.3C8.2,3.1,7.7,2.8,7.4,2.3z"/>
	
		<radialGradient id="SVGID_127_" cx="-441.5555" cy="482.9548" r="0.3334" gradientTransform="matrix(14.1528 -0.1087 -8.142021e-02 -10.6004 6298.3232 5073.3613)" gradientUnits="userSpaceOnUse">
		<stop  offset="0" style="stop-color:#7B8532"/>
		<stop  offset="0.6513" style="stop-color:#C3CF23;stop-opacity:0"/>
	</radialGradient>
	<path class="st136" d="M7.4,2.3L7.4,2.3C6.7,1.4,5.6,1.2,4.8,1.8c-0.8,0.6-1,1.7-0.4,2.6l0.1,0.1c0.3,0.5,0.5,1,0.4,1.6
		C4.7,6.8,5,7.6,5.4,8.2c1,1.4,3,1.8,4.5,0.8s1.8-3,0.8-4.5c-0.4-0.6-1.1-1.1-1.8-1.3C8.2,3.1,7.7,2.8,7.4,2.3z"/>
	
		<radialGradient id="SVGID_128_" cx="-449.2381" cy="505.4476" r="0.3334" gradientTransform="matrix(18.7491 5.444 4.0775 -14.0429 6373.3457 9550.6318)" gradientUnits="userSpaceOnUse">
		<stop  offset="0" style="stop-color:#7B8532;stop-opacity:0.4"/>
		<stop  offset="0.5459" style="stop-color:#C3CF23;stop-opacity:0"/>
	</radialGradient>
	<path class="st137" d="M7.4,2.3L7.4,2.3C6.7,1.4,5.6,1.2,4.8,1.8c-0.8,0.6-1,1.7-0.4,2.6l0.1,0.1c0.3,0.5,0.5,1,0.4,1.6
		C4.7,6.8,5,7.6,5.4,8.2c1,1.4,3,1.8,4.5,0.8s1.8-3,0.8-4.5c-0.4-0.6-1.1-1.1-1.8-1.3C8.2,3.1,7.7,2.8,7.4,2.3z"/>
</g>
</svg>
