<?xml version="1.0" encoding="utf-8"?>
<!-- Generator: Adobe Illustrator 22.1.0, SVG Export Plug-In . SVG Version: 6.00 Build 0)  -->
<svg version="1.1" id="图层_1" xmlns="http://www.w3.org/2000/svg" xmlns:xlink="http://www.w3.org/1999/xlink" x="0px" y="0px"
	 viewBox="0 0 32 32" style="enable-background:new 0 0 32 32;" xml:space="preserve">
<style type="text/css">
	.st0{fill:#6666FF;}
	.st1{fill:url(#SVGID_1_);}
	.st2{fill:url(#SVGID_2_);}
	.st3{fill:#CCCCFF;}
	.st4{fill:url(#SVGID_3_);}
	.st5{fill:url(#SVGID_4_);}
</style>
<g>
	<path class="st0" d="M4.2,5.6c0-0.7,0.6-1.3,1.3-1.3h23.3c0.7,0,1.3,0.6,1.3,1.3v21.8c0,0.6-0.5,1-1,1H5.2c-0.6,0-1-0.5-1-1V5.6z"
		/>
	<path class="st0" d="M4.2,5.6c0-0.7,0.6-1.3,1.3-1.3h23.3c0.7,0,1.3,0.6,1.3,1.3v21.8c0,0.6-0.5,1-1,1H5.2c-0.6,0-1-0.5-1-1V5.6z"
		/>
</g>
<linearGradient id="SVGID_1_" gradientUnits="userSpaceOnUse" x1="17.0787" y1="5.8335" x2="17.0787" y2="9.2667" gradientTransform="matrix(1 0 0 -1 0 34)">
	<stop  offset="0" style="stop-color:#FFFEFF"/>
	<stop  offset="1" style="stop-color:#F6F2FA;stop-opacity:0"/>
</linearGradient>
<path class="st1" d="M4.2,6.7h22.4c0.7,0,1.3,0.6,1.3,1.3v19.3c0,0.4,0.3,0.7,0.7,0.7h0.7c0.3,0,0.7-0.3,0.7-0.7V5.3
	c0-0.1,0-0.2-0.1-0.4C29.9,5.1,30,5.3,30,5.6v21.8c0,0.6-0.5,1-1,1H5.2c-0.6,0-1-0.5-1-1V6.7z"/>
<g>
	
		<linearGradient id="SVGID_2_" gradientUnits="userSpaceOnUse" x1="26.1139" y1="16.4477" x2="28.3019" y2="16.4477" gradientTransform="matrix(1 0 0 -1 0 34)">
		<stop  offset="0" style="stop-color:#EBE4F4"/>
		<stop  offset="1" style="stop-color:#E9E1F2"/>
	</linearGradient>
	<path class="st2" d="M3.3,6.7C2.6,6.7,2,7.3,2,8v19.4c0,0.6,0.5,1,1,1h25.3v0c-0.4,0-0.5-0.4-0.5-0.6V8c0-0.7-0.6-1.3-1.3-1.3H3.3z
		"/>
	<path class="st3" d="M3.3,6.7C2.6,6.7,2,7.3,2,8v19.4c0,0.6,0.5,1,1,1h25.3v0c-0.4,0-0.5-0.4-0.5-0.6V8c0-0.7-0.6-1.3-1.3-1.3H3.3z
		"/>
</g>
<linearGradient id="SVGID_3_" gradientUnits="userSpaceOnUse" x1="25.772" y1="24.4563" x2="5.9104" y2="16.3746">
	<stop  offset="0" style="stop-color:#51C9FF"/>
	<stop  offset="0.78" style="stop-color:#46A4F6"/>
</linearGradient>
<path class="st4" d="M27.8,17.3v5c-1.2-0.3-2,0.1-2.7,0.6c-0.1,0.1-0.2,0.2-0.3,0.2c-0.9,0.8-1.3,1.1-2.2,1.1
	c-0.8,0-1.2-0.4-1.8-0.9c-0.6-0.5-1.2-1.1-2.4-1.1c-1.1,0-1.7,0.4-2.3,0.9c-0.5,0.4-1,0.7-1.8,0.7c-0.7,0-1.1-0.3-1.5-0.7
	c-0.6-0.4-1.2-0.9-2.5-0.9c-1,0-1.6,0.5-2.2,1c-0.6,0.5-1.1,1-2,1c-0.9,0-1.4-0.5-2-1.1C4,23.1,3.9,23,3.8,22.9
	c-0.6-0.5-1.5-0.7-1.8-0.6v-5c0.3,0,1.2,0.1,1.8,0.6C3.9,18,4,18.1,4.1,18.2c0.6,0.6,1.1,1.1,2,1.1c0.9,0,1.4-0.5,2-1
	c0.6-0.5,1.2-1,2.2-1c1.3,0,1.9,0.5,2.5,0.9c0.5,0.3,0.9,0.7,1.5,0.7c0.8,0,1.3-0.4,1.8-0.7c0.6-0.4,1.2-0.9,2.3-0.9
	c1.1,0,1.8,0.6,2.4,1.1c0.5,0.5,1,0.9,1.8,0.9c1,0,1.3-0.3,2.2-1.1c0.1-0.1,0.2-0.2,0.3-0.2C25.8,17.4,26.7,17,27.8,17.3z"/>
<linearGradient id="SVGID_4_" gradientUnits="userSpaceOnUse" x1="27.5249" y1="30.3481" x2="2.8201" y2="20.2679">
	<stop  offset="0" style="stop-color:#4087F7"/>
	<stop  offset="1" style="stop-color:#3F83E6"/>
</linearGradient>
<path class="st5" d="M28.3,28.4H3c-0.6,0-1-0.4-1-1v-5.1c0.3,0,1.2,0.1,1.8,0.6C3.9,23,4,23.1,4.1,23.2c0.6,0.6,1.1,1.1,2,1.1
	c0.9,0,1.4-0.5,2-1c0.6-0.5,1.2-1,2.2-1c1.3,0,1.9,0.5,2.5,0.9c0.5,0.3,0.9,0.7,1.5,0.7c0.8,0,1.3-0.4,1.8-0.7
	c0.6-0.4,1.2-0.9,2.3-0.9c1.1,0,1.8,0.6,2.4,1.1c0.5,0.5,1,0.9,1.8,0.9c1,0,1.3-0.3,2.2-1.1c0.1-0.1,0.2-0.2,0.3-0.2
	c0.6-0.5,1.5-0.9,2.7-0.6v5.4C27.8,28,27.9,28.3,28.3,28.4z"/>
</svg>
